<?xml version="1.0" encoding="utf-8" standalone="no"?>
<!DOCTYPE svg PUBLIC "-//W3C//DTD SVG 1.1//EN"
  "http://www.w3.org/Graphics/SVG/1.1/DTD/svg11.dtd">
<svg xmlns:xlink="http://www.w3.org/1999/xlink" width="424.704375pt" height="424.2675pt" viewBox="0 0 424.704375 424.2675" xmlns="http://www.w3.org/2000/svg" version="1.1">
 <metadata>
  <rdf:RDF xmlns:dc="http://purl.org/dc/elements/1.1/" xmlns:cc="http://creativecommons.org/ns#" xmlns:rdf="http://www.w3.org/1999/02/22-rdf-syntax-ns#">
   <cc:Work>
    <dc:type rdf:resource="http://purl.org/dc/dcmitype/StillImage"/>
    <dc:date>2026-01-27T18:17:55.896563</dc:date>
    <dc:format>image/svg+xml</dc:format>
    <dc:creator>
     <cc:Agent>
      <dc:title>Matplotlib v3.10.8, https://matplotlib.org/</dc:title>
     </cc:Agent>
    </dc:creator>
   </cc:Work>
  </rdf:RDF>
 </metadata>
 <defs>
  <style type="text/css">*{stroke-linejoin: round; stroke-linecap: butt}</style>
 </defs>
 <g id="figure_1">
  <g id="patch_1">
   <path d="M 0 424.2675 
L 424.704375 424.2675 
L 424.704375 0 
L 0 0 
z
" style="fill: #ffffff"/>
  </g>
  <g id="axes_1">
   <g id="patch_2">
    <path d="M 44.474375 382.84 
L 417.504375 382.84 
L 417.504375 7.2 
L 44.474375 7.2 
z
" style="fill: #ffffff"/>
   </g>
   <g id="matplotlib.axis_1">
    <g id="xtick_1">
     <g id="line2d_1">
      <defs>
       <path id="m7e0d0491d9" d="M 0 0 
L 0 3.5 
" style="stroke: #000000; stroke-width: 0.8"/>
      </defs>
      <g>
       <use xlink:href="#m7e0d0491d9" x="95.342102" y="382.84" style="stroke: #000000; stroke-width: 0.8"/>
      </g>
     </g>
     <g id="text_1">
      <!-- 2 -->
      <g transform="translate(92.160852 397.438437) scale(0.1 -0.1)">
       <defs>
        <path id="DejaVuSans-32" d="M 1228 531 
L 3431 531 
L 3431 0 
L 469 0 
L 469 531 
Q 828 903 1448 1529 
Q 2069 2156 2228 2338 
Q 2531 2678 2651 2914 
Q 2772 3150 2772 3378 
Q 2772 3750 2511 3984 
Q 2250 4219 1831 4219 
Q 1534 4219 1204 4116 
Q 875 4013 500 3803 
L 500 4441 
Q 881 4594 1212 4672 
Q 1544 4750 1819 4750 
Q 2544 4750 2975 4387 
Q 3406 4025 3406 3419 
Q 3406 3131 3298 2873 
Q 3191 2616 2906 2266 
Q 2828 2175 2409 1742 
Q 1991 1309 1228 531 
z
" transform="scale(0.015625)"/>
       </defs>
       <use xlink:href="#DejaVuSans-32"/>
      </g>
     </g>
    </g>
    <g id="xtick_2">
     <g id="line2d_2">
      <g>
       <use xlink:href="#m7e0d0491d9" x="163.165739" y="382.84" style="stroke: #000000; stroke-width: 0.8"/>
      </g>
     </g>
     <g id="text_2">
      <!-- 4 -->
      <g transform="translate(159.984489 397.438437) scale(0.1 -0.1)">
       <defs>
        <path id="DejaVuSans-34" d="M 2419 4116 
L 825 1625 
L 2419 1625 
L 2419 4116 
z
M 2253 4666 
L 3047 4666 
L 3047 1625 
L 3713 1625 
L 3713 1100 
L 3047 1100 
L 3047 0 
L 2419 0 
L 2419 1100 
L 313 1100 
L 313 1709 
L 2253 4666 
z
" transform="scale(0.015625)"/>
       </defs>
       <use xlink:href="#DejaVuSans-34"/>
      </g>
     </g>
    </g>
    <g id="xtick_3">
     <g id="line2d_3">
      <g>
       <use xlink:href="#m7e0d0491d9" x="230.989375" y="382.84" style="stroke: #000000; stroke-width: 0.8"/>
      </g>
     </g>
     <g id="text_3">
      <!-- 6 -->
      <g transform="translate(227.808125 397.438437) scale(0.1 -0.1)">
       <defs>
        <path id="DejaVuSans-36" d="M 2113 2584 
Q 1688 2584 1439 2293 
Q 1191 2003 1191 1497 
Q 1191 994 1439 701 
Q 1688 409 2113 409 
Q 2538 409 2786 701 
Q 3034 994 3034 1497 
Q 3034 2003 2786 2293 
Q 2538 2584 2113 2584 
z
M 3366 4563 
L 3366 3988 
Q 3128 4100 2886 4159 
Q 2644 4219 2406 4219 
Q 1781 4219 1451 3797 
Q 1122 3375 1075 2522 
Q 1259 2794 1537 2939 
Q 1816 3084 2150 3084 
Q 2853 3084 3261 2657 
Q 3669 2231 3669 1497 
Q 3669 778 3244 343 
Q 2819 -91 2113 -91 
Q 1303 -91 875 529 
Q 447 1150 447 2328 
Q 447 3434 972 4092 
Q 1497 4750 2381 4750 
Q 2619 4750 2861 4703 
Q 3103 4656 3366 4563 
z
" transform="scale(0.015625)"/>
       </defs>
       <use xlink:href="#DejaVuSans-36"/>
      </g>
     </g>
    </g>
    <g id="xtick_4">
     <g id="line2d_4">
      <g>
       <use xlink:href="#m7e0d0491d9" x="298.813011" y="382.84" style="stroke: #000000; stroke-width: 0.8"/>
      </g>
     </g>
     <g id="text_4">
      <!-- 8 -->
      <g transform="translate(295.631761 397.438437) scale(0.1 -0.1)">
       <defs>
        <path id="DejaVuSans-38" d="M 2034 2216 
Q 1584 2216 1326 1975 
Q 1069 1734 1069 1313 
Q 1069 891 1326 650 
Q 1584 409 2034 409 
Q 2484 409 2743 651 
Q 3003 894 3003 1313 
Q 3003 1734 2745 1975 
Q 2488 2216 2034 2216 
z
M 1403 2484 
Q 997 2584 770 2862 
Q 544 3141 544 3541 
Q 544 4100 942 4425 
Q 1341 4750 2034 4750 
Q 2731 4750 3128 4425 
Q 3525 4100 3525 3541 
Q 3525 3141 3298 2862 
Q 3072 2584 2669 2484 
Q 3125 2378 3379 2068 
Q 3634 1759 3634 1313 
Q 3634 634 3220 271 
Q 2806 -91 2034 -91 
Q 1263 -91 848 271 
Q 434 634 434 1313 
Q 434 1759 690 2068 
Q 947 2378 1403 2484 
z
M 1172 3481 
Q 1172 3119 1398 2916 
Q 1625 2713 2034 2713 
Q 2441 2713 2670 2916 
Q 2900 3119 2900 3481 
Q 2900 3844 2670 4047 
Q 2441 4250 2034 4250 
Q 1625 4250 1398 4047 
Q 1172 3844 1172 3481 
z
" transform="scale(0.015625)"/>
       </defs>
       <use xlink:href="#DejaVuSans-38"/>
      </g>
     </g>
    </g>
    <g id="xtick_5">
     <g id="line2d_5">
      <g>
       <use xlink:href="#m7e0d0491d9" x="366.636648" y="382.84" style="stroke: #000000; stroke-width: 0.8"/>
      </g>
     </g>
     <g id="text_5">
      <!-- 10 -->
      <g transform="translate(360.274148 397.438437) scale(0.1 -0.1)">
       <defs>
        <path id="DejaVuSans-31" d="M 794 531 
L 1825 531 
L 1825 4091 
L 703 3866 
L 703 4441 
L 1819 4666 
L 2450 4666 
L 2450 531 
L 3481 531 
L 3481 0 
L 794 0 
L 794 531 
z
" transform="scale(0.015625)"/>
        <path id="DejaVuSans-30" d="M 2034 4250 
Q 1547 4250 1301 3770 
Q 1056 3291 1056 2328 
Q 1056 1369 1301 889 
Q 1547 409 2034 409 
Q 2525 409 2770 889 
Q 3016 1369 3016 2328 
Q 3016 3291 2770 3770 
Q 2525 4250 2034 4250 
z
M 2034 4750 
Q 2819 4750 3233 4129 
Q 3647 3509 3647 2328 
Q 3647 1150 3233 529 
Q 2819 -91 2034 -91 
Q 1250 -91 836 529 
Q 422 1150 422 2328 
Q 422 3509 836 4129 
Q 1250 4750 2034 4750 
z
" transform="scale(0.015625)"/>
       </defs>
       <use xlink:href="#DejaVuSans-31"/>
       <use xlink:href="#DejaVuSans-30" transform="translate(63.623047 0)"/>
      </g>
     </g>
    </g>
    <g id="text_6">
     <!-- Experimental Rank -->
     <g transform="translate(164.59875 414.155937) scale(0.14 -0.14)">
      <defs>
       <path id="DejaVuSans-45" d="M 628 4666 
L 3578 4666 
L 3578 4134 
L 1259 4134 
L 1259 2753 
L 3481 2753 
L 3481 2222 
L 1259 2222 
L 1259 531 
L 3634 531 
L 3634 0 
L 628 0 
L 628 4666 
z
" transform="scale(0.015625)"/>
       <path id="DejaVuSans-78" d="M 3513 3500 
L 2247 1797 
L 3578 0 
L 2900 0 
L 1881 1375 
L 863 0 
L 184 0 
L 1544 1831 
L 300 3500 
L 978 3500 
L 1906 2253 
L 2834 3500 
L 3513 3500 
z
" transform="scale(0.015625)"/>
       <path id="DejaVuSans-70" d="M 1159 525 
L 1159 -1331 
L 581 -1331 
L 581 3500 
L 1159 3500 
L 1159 2969 
Q 1341 3281 1617 3432 
Q 1894 3584 2278 3584 
Q 2916 3584 3314 3078 
Q 3713 2572 3713 1747 
Q 3713 922 3314 415 
Q 2916 -91 2278 -91 
Q 1894 -91 1617 61 
Q 1341 213 1159 525 
z
M 3116 1747 
Q 3116 2381 2855 2742 
Q 2594 3103 2138 3103 
Q 1681 3103 1420 2742 
Q 1159 2381 1159 1747 
Q 1159 1113 1420 752 
Q 1681 391 2138 391 
Q 2594 391 2855 752 
Q 3116 1113 3116 1747 
z
" transform="scale(0.015625)"/>
       <path id="DejaVuSans-65" d="M 3597 1894 
L 3597 1613 
L 953 1613 
Q 991 1019 1311 708 
Q 1631 397 2203 397 
Q 2534 397 2845 478 
Q 3156 559 3463 722 
L 3463 178 
Q 3153 47 2828 -22 
Q 2503 -91 2169 -91 
Q 1331 -91 842 396 
Q 353 884 353 1716 
Q 353 2575 817 3079 
Q 1281 3584 2069 3584 
Q 2775 3584 3186 3129 
Q 3597 2675 3597 1894 
z
M 3022 2063 
Q 3016 2534 2758 2815 
Q 2500 3097 2075 3097 
Q 1594 3097 1305 2825 
Q 1016 2553 972 2059 
L 3022 2063 
z
" transform="scale(0.015625)"/>
       <path id="DejaVuSans-72" d="M 2631 2963 
Q 2534 3019 2420 3045 
Q 2306 3072 2169 3072 
Q 1681 3072 1420 2755 
Q 1159 2438 1159 1844 
L 1159 0 
L 581 0 
L 581 3500 
L 1159 3500 
L 1159 2956 
Q 1341 3275 1631 3429 
Q 1922 3584 2338 3584 
Q 2397 3584 2469 3576 
Q 2541 3569 2628 3553 
L 2631 2963 
z
" transform="scale(0.015625)"/>
       <path id="DejaVuSans-69" d="M 603 3500 
L 1178 3500 
L 1178 0 
L 603 0 
L 603 3500 
z
M 603 4863 
L 1178 4863 
L 1178 4134 
L 603 4134 
L 603 4863 
z
" transform="scale(0.015625)"/>
       <path id="DejaVuSans-6d" d="M 3328 2828 
Q 3544 3216 3844 3400 
Q 4144 3584 4550 3584 
Q 5097 3584 5394 3201 
Q 5691 2819 5691 2113 
L 5691 0 
L 5113 0 
L 5113 2094 
Q 5113 2597 4934 2840 
Q 4756 3084 4391 3084 
Q 3944 3084 3684 2787 
Q 3425 2491 3425 1978 
L 3425 0 
L 2847 0 
L 2847 2094 
Q 2847 2600 2669 2842 
Q 2491 3084 2119 3084 
Q 1678 3084 1418 2786 
Q 1159 2488 1159 1978 
L 1159 0 
L 581 0 
L 581 3500 
L 1159 3500 
L 1159 2956 
Q 1356 3278 1631 3431 
Q 1906 3584 2284 3584 
Q 2666 3584 2933 3390 
Q 3200 3197 3328 2828 
z
" transform="scale(0.015625)"/>
       <path id="DejaVuSans-6e" d="M 3513 2113 
L 3513 0 
L 2938 0 
L 2938 2094 
Q 2938 2591 2744 2837 
Q 2550 3084 2163 3084 
Q 1697 3084 1428 2787 
Q 1159 2491 1159 1978 
L 1159 0 
L 581 0 
L 581 3500 
L 1159 3500 
L 1159 2956 
Q 1366 3272 1645 3428 
Q 1925 3584 2291 3584 
Q 2894 3584 3203 3211 
Q 3513 2838 3513 2113 
z
" transform="scale(0.015625)"/>
       <path id="DejaVuSans-74" d="M 1172 4494 
L 1172 3500 
L 2356 3500 
L 2356 3053 
L 1172 3053 
L 1172 1153 
Q 1172 725 1289 603 
Q 1406 481 1766 481 
L 2356 481 
L 2356 0 
L 1766 0 
Q 1100 0 847 248 
Q 594 497 594 1153 
L 594 3053 
L 172 3053 
L 172 3500 
L 594 3500 
L 594 4494 
L 1172 4494 
z
" transform="scale(0.015625)"/>
       <path id="DejaVuSans-61" d="M 2194 1759 
Q 1497 1759 1228 1600 
Q 959 1441 959 1056 
Q 959 750 1161 570 
Q 1363 391 1709 391 
Q 2188 391 2477 730 
Q 2766 1069 2766 1631 
L 2766 1759 
L 2194 1759 
z
M 3341 1997 
L 3341 0 
L 2766 0 
L 2766 531 
Q 2569 213 2275 61 
Q 1981 -91 1556 -91 
Q 1019 -91 701 211 
Q 384 513 384 1019 
Q 384 1609 779 1909 
Q 1175 2209 1959 2209 
L 2766 2209 
L 2766 2266 
Q 2766 2663 2505 2880 
Q 2244 3097 1772 3097 
Q 1472 3097 1187 3025 
Q 903 2953 641 2809 
L 641 3341 
Q 956 3463 1253 3523 
Q 1550 3584 1831 3584 
Q 2591 3584 2966 3190 
Q 3341 2797 3341 1997 
z
" transform="scale(0.015625)"/>
       <path id="DejaVuSans-6c" d="M 603 4863 
L 1178 4863 
L 1178 0 
L 603 0 
L 603 4863 
z
" transform="scale(0.015625)"/>
       <path id="DejaVuSans-20" transform="scale(0.015625)"/>
       <path id="DejaVuSans-52" d="M 2841 2188 
Q 3044 2119 3236 1894 
Q 3428 1669 3622 1275 
L 4263 0 
L 3584 0 
L 2988 1197 
Q 2756 1666 2539 1819 
Q 2322 1972 1947 1972 
L 1259 1972 
L 1259 0 
L 628 0 
L 628 4666 
L 2053 4666 
Q 2853 4666 3247 4331 
Q 3641 3997 3641 3322 
Q 3641 2881 3436 2590 
Q 3231 2300 2841 2188 
z
M 1259 4147 
L 1259 2491 
L 2053 2491 
Q 2509 2491 2742 2702 
Q 2975 2913 2975 3322 
Q 2975 3731 2742 3939 
Q 2509 4147 2053 4147 
L 1259 4147 
z
" transform="scale(0.015625)"/>
       <path id="DejaVuSans-6b" d="M 581 4863 
L 1159 4863 
L 1159 1991 
L 2875 3500 
L 3609 3500 
L 1753 1863 
L 3688 0 
L 2938 0 
L 1159 1709 
L 1159 0 
L 581 0 
L 581 4863 
z
" transform="scale(0.015625)"/>
      </defs>
      <use xlink:href="#DejaVuSans-45"/>
      <use xlink:href="#DejaVuSans-78" transform="translate(63.183594 0)"/>
      <use xlink:href="#DejaVuSans-70" transform="translate(122.363281 0)"/>
      <use xlink:href="#DejaVuSans-65" transform="translate(185.839844 0)"/>
      <use xlink:href="#DejaVuSans-72" transform="translate(247.363281 0)"/>
      <use xlink:href="#DejaVuSans-69" transform="translate(288.476562 0)"/>
      <use xlink:href="#DejaVuSans-6d" transform="translate(316.259766 0)"/>
      <use xlink:href="#DejaVuSans-65" transform="translate(413.671875 0)"/>
      <use xlink:href="#DejaVuSans-6e" transform="translate(475.195312 0)"/>
      <use xlink:href="#DejaVuSans-74" transform="translate(538.574219 0)"/>
      <use xlink:href="#DejaVuSans-61" transform="translate(577.783203 0)"/>
      <use xlink:href="#DejaVuSans-6c" transform="translate(639.0625 0)"/>
      <use xlink:href="#DejaVuSans-20" transform="translate(666.845703 0)"/>
      <use xlink:href="#DejaVuSans-52" transform="translate(698.632812 0)"/>
      <use xlink:href="#DejaVuSans-61" transform="translate(765.865234 0)"/>
      <use xlink:href="#DejaVuSans-6e" transform="translate(827.144531 0)"/>
      <use xlink:href="#DejaVuSans-6b" transform="translate(890.523438 0)"/>
     </g>
    </g>
   </g>
   <g id="matplotlib.axis_2">
    <g id="ytick_1">
     <g id="line2d_6">
      <defs>
       <path id="mbacd7a4e1c" d="M 0 0 
L -3.5 0 
" style="stroke: #000000; stroke-width: 0.8"/>
      </defs>
      <g>
       <use xlink:href="#mbacd7a4e1c" x="44.474375" y="357.466733" style="stroke: #000000; stroke-width: 0.8"/>
      </g>
     </g>
     <g id="text_7">
      <!-- 0 -->
      <g transform="translate(31.111875 361.265952) scale(0.1 -0.1)">
       <use xlink:href="#DejaVuSans-30"/>
      </g>
     </g>
    </g>
    <g id="ytick_2">
     <g id="line2d_7">
      <g>
       <use xlink:href="#mbacd7a4e1c" x="44.474375" y="303.317822" style="stroke: #000000; stroke-width: 0.8"/>
      </g>
     </g>
     <g id="text_8">
      <!-- 2 -->
      <g transform="translate(31.111875 307.117041) scale(0.1 -0.1)">
       <use xlink:href="#DejaVuSans-32"/>
      </g>
     </g>
    </g>
    <g id="ytick_3">
     <g id="line2d_8">
      <g>
       <use xlink:href="#mbacd7a4e1c" x="44.474375" y="249.168911" style="stroke: #000000; stroke-width: 0.8"/>
      </g>
     </g>
     <g id="text_9">
      <!-- 4 -->
      <g transform="translate(31.111875 252.96813) scale(0.1 -0.1)">
       <use xlink:href="#DejaVuSans-34"/>
      </g>
     </g>
    </g>
    <g id="ytick_4">
     <g id="line2d_9">
      <g>
       <use xlink:href="#mbacd7a4e1c" x="44.474375" y="195.02" style="stroke: #000000; stroke-width: 0.8"/>
      </g>
     </g>
     <g id="text_10">
      <!-- 6 -->
      <g transform="translate(31.111875 198.819219) scale(0.1 -0.1)">
       <use xlink:href="#DejaVuSans-36"/>
      </g>
     </g>
    </g>
    <g id="ytick_5">
     <g id="line2d_10">
      <g>
       <use xlink:href="#mbacd7a4e1c" x="44.474375" y="140.871089" style="stroke: #000000; stroke-width: 0.8"/>
      </g>
     </g>
     <g id="text_11">
      <!-- 8 -->
      <g transform="translate(31.111875 144.670308) scale(0.1 -0.1)">
       <use xlink:href="#DejaVuSans-38"/>
      </g>
     </g>
    </g>
    <g id="ytick_6">
     <g id="line2d_11">
      <g>
       <use xlink:href="#mbacd7a4e1c" x="44.474375" y="86.722178" style="stroke: #000000; stroke-width: 0.8"/>
      </g>
     </g>
     <g id="text_12">
      <!-- 10 -->
      <g transform="translate(24.749375 90.521397) scale(0.1 -0.1)">
       <use xlink:href="#DejaVuSans-31"/>
       <use xlink:href="#DejaVuSans-30" transform="translate(63.623047 0)"/>
      </g>
     </g>
    </g>
    <g id="ytick_7">
     <g id="line2d_12">
      <g>
       <use xlink:href="#mbacd7a4e1c" x="44.474375" y="32.573267" style="stroke: #000000; stroke-width: 0.8"/>
      </g>
     </g>
     <g id="text_13">
      <!-- 12 -->
      <g transform="translate(24.749375 36.372486) scale(0.1 -0.1)">
       <use xlink:href="#DejaVuSans-31"/>
       <use xlink:href="#DejaVuSans-32" transform="translate(63.623047 0)"/>
      </g>
     </g>
    </g>
    <g id="text_14">
     <!-- Predicted Rank -->
     <g transform="translate(17.837813 247.588906) rotate(-90) scale(0.14 -0.14)">
      <defs>
       <path id="DejaVuSans-50" d="M 1259 4147 
L 1259 2394 
L 2053 2394 
Q 2494 2394 2734 2622 
Q 2975 2850 2975 3272 
Q 2975 3691 2734 3919 
Q 2494 4147 2053 4147 
L 1259 4147 
z
M 628 4666 
L 2053 4666 
Q 2838 4666 3239 4311 
Q 3641 3956 3641 3272 
Q 3641 2581 3239 2228 
Q 2838 1875 2053 1875 
L 1259 1875 
L 1259 0 
L 628 0 
L 628 4666 
z
" transform="scale(0.015625)"/>
       <path id="DejaVuSans-64" d="M 2906 2969 
L 2906 4863 
L 3481 4863 
L 3481 0 
L 2906 0 
L 2906 525 
Q 2725 213 2448 61 
Q 2172 -91 1784 -91 
Q 1150 -91 751 415 
Q 353 922 353 1747 
Q 353 2572 751 3078 
Q 1150 3584 1784 3584 
Q 2172 3584 2448 3432 
Q 2725 3281 2906 2969 
z
M 947 1747 
Q 947 1113 1208 752 
Q 1469 391 1925 391 
Q 2381 391 2643 752 
Q 2906 1113 2906 1747 
Q 2906 2381 2643 2742 
Q 2381 3103 1925 3103 
Q 1469 3103 1208 2742 
Q 947 2381 947 1747 
z
" transform="scale(0.015625)"/>
       <path id="DejaVuSans-63" d="M 3122 3366 
L 3122 2828 
Q 2878 2963 2633 3030 
Q 2388 3097 2138 3097 
Q 1578 3097 1268 2742 
Q 959 2388 959 1747 
Q 959 1106 1268 751 
Q 1578 397 2138 397 
Q 2388 397 2633 464 
Q 2878 531 3122 666 
L 3122 134 
Q 2881 22 2623 -34 
Q 2366 -91 2075 -91 
Q 1284 -91 818 406 
Q 353 903 353 1747 
Q 353 2603 823 3093 
Q 1294 3584 2113 3584 
Q 2378 3584 2631 3529 
Q 2884 3475 3122 3366 
z
" transform="scale(0.015625)"/>
      </defs>
      <use xlink:href="#DejaVuSans-50"/>
      <use xlink:href="#DejaVuSans-72" transform="translate(58.552734 0)"/>
      <use xlink:href="#DejaVuSans-65" transform="translate(97.416016 0)"/>
      <use xlink:href="#DejaVuSans-64" transform="translate(158.939453 0)"/>
      <use xlink:href="#DejaVuSans-69" transform="translate(222.416016 0)"/>
      <use xlink:href="#DejaVuSans-63" transform="translate(250.199219 0)"/>
      <use xlink:href="#DejaVuSans-74" transform="translate(305.179688 0)"/>
      <use xlink:href="#DejaVuSans-65" transform="translate(344.388672 0)"/>
      <use xlink:href="#DejaVuSans-64" transform="translate(405.912109 0)"/>
      <use xlink:href="#DejaVuSans-20" transform="translate(469.388672 0)"/>
      <use xlink:href="#DejaVuSans-52" transform="translate(501.175781 0)"/>
      <use xlink:href="#DejaVuSans-61" transform="translate(568.408203 0)"/>
      <use xlink:href="#DejaVuSans-6e" transform="translate(629.6875 0)"/>
      <use xlink:href="#DejaVuSans-6b" transform="translate(693.066406 0)"/>
     </g>
    </g>
   </g>
   <g id="FillBetweenPolyCollection_1">
    <defs>
     <path id="m8f9a108204" d="M 61.430284 -148.938912 
L 61.430284 -58.502045 
L 64.85572 -61.688537 
L 68.281156 -64.871094 
L 71.706593 -68.04954 
L 75.132029 -71.22369 
L 78.557465 -74.393347 
L 81.982901 -77.558306 
L 85.408337 -80.718348 
L 88.833774 -83.873245 
L 92.25921 -87.022754 
L 95.684646 -90.16662 
L 99.110082 -93.304575 
L 102.535518 -96.436337 
L 105.960954 -99.561606 
L 109.386391 -102.680068 
L 112.811827 -105.791393 
L 116.237263 -108.895233 
L 119.662699 -111.991221 
L 123.088135 -115.078974 
L 126.513572 -118.158086 
L 129.939008 -121.228134 
L 133.364444 -124.288673 
L 136.78988 -127.339239 
L 140.215316 -130.379344 
L 143.640752 -133.408482 
L 147.066189 -136.426124 
L 150.491625 -139.431719 
L 153.917061 -142.424698 
L 157.342497 -145.40447 
L 160.767933 -148.370428 
L 164.193369 -151.321944 
L 167.618806 -154.258378 
L 171.044242 -157.179074 
L 174.469678 -160.083369 
L 177.895114 -162.97059 
L 181.32055 -165.840061 
L 184.745987 -168.691108 
L 188.171423 -171.523061 
L 191.596859 -174.335262 
L 195.022295 -177.127068 
L 198.447731 -179.89786 
L 201.873167 -182.647046 
L 205.298604 -185.37407 
L 208.72404 -188.078417 
L 212.149476 -190.75962 
L 215.574912 -193.417267 
L 219.000348 -196.051003 
L 222.425785 -198.660539 
L 225.851221 -201.245654 
L 229.276657 -203.806199 
L 232.702093 -206.342098 
L 236.127529 -208.853352 
L 239.552965 -211.340036 
L 242.978402 -213.802299 
L 246.403838 -216.240362 
L 249.829274 -218.654514 
L 253.25471 -221.045109 
L 256.680146 -223.412561 
L 260.105583 -225.757336 
L 263.531019 -228.079949 
L 266.956455 -230.380956 
L 270.381891 -232.660949 
L 273.807327 -234.920547 
L 277.232763 -237.160392 
L 280.6582 -239.381144 
L 284.083636 -241.583472 
L 287.509072 -243.76805 
L 290.934508 -245.935554 
L 294.359944 -248.086656 
L 297.785381 -250.222021 
L 301.210817 -252.342304 
L 304.636253 -254.448145 
L 308.061689 -256.540172 
L 311.487125 -258.618992 
L 314.912561 -260.685195 
L 318.337998 -262.739352 
L 321.763434 -264.782013 
L 325.18887 -266.813707 
L 328.614306 -268.83494 
L 332.039742 -270.846199 
L 335.465178 -272.84795 
L 338.890615 -274.840637 
L 342.316051 -276.824683 
L 345.741487 -278.800494 
L 349.166923 -280.768453 
L 352.592359 -282.728926 
L 356.017796 -284.682263 
L 359.443232 -286.628793 
L 362.868668 -288.568831 
L 366.294104 -290.502674 
L 369.71954 -292.430606 
L 373.144976 -294.352896 
L 376.570413 -296.269799 
L 379.995849 -298.181555 
L 383.421285 -300.088396 
L 386.846721 -301.990537 
L 390.272157 -303.888186 
L 393.697594 -305.781539 
L 397.12303 -307.67078 
L 400.548466 -309.556088 
L 400.548466 -399.992955 
L 400.548466 -399.992955 
L 397.12303 -396.806463 
L 393.697594 -393.623906 
L 390.272157 -390.44546 
L 386.846721 -387.27131 
L 383.421285 -384.101653 
L 379.995849 -380.936694 
L 376.570413 -377.776652 
L 373.144976 -374.621755 
L 369.71954 -371.472246 
L 366.294104 -368.32838 
L 362.868668 -365.190425 
L 359.443232 -362.058663 
L 356.017796 -358.933394 
L 352.592359 -355.814932 
L 349.166923 -352.703607 
L 345.741487 -349.599767 
L 342.316051 -346.503779 
L 338.890615 -343.416026 
L 335.465178 -340.336914 
L 332.039742 -337.266866 
L 328.614306 -334.206327 
L 325.18887 -331.155761 
L 321.763434 -328.115656 
L 318.337998 -325.086518 
L 314.912561 -322.068876 
L 311.487125 -319.063281 
L 308.061689 -316.070302 
L 304.636253 -313.09053 
L 301.210817 -310.124572 
L 297.785381 -307.173056 
L 294.359944 -304.236622 
L 290.934508 -301.315926 
L 287.509072 -298.411631 
L 284.083636 -295.52441 
L 280.6582 -292.654939 
L 277.232763 -289.803892 
L 273.807327 -286.971939 
L 270.381891 -284.159738 
L 266.956455 -281.367932 
L 263.531019 -278.59714 
L 260.105583 -275.847954 
L 256.680146 -273.12093 
L 253.25471 -270.416583 
L 249.829274 -267.73538 
L 246.403838 -265.077733 
L 242.978402 -262.443997 
L 239.552965 -259.834461 
L 236.127529 -257.249346 
L 232.702093 -254.688801 
L 229.276657 -252.152902 
L 225.851221 -249.641648 
L 222.425785 -247.154964 
L 219.000348 -244.692701 
L 215.574912 -242.254638 
L 212.149476 -239.840486 
L 208.72404 -237.449891 
L 205.298604 -235.082439 
L 201.873167 -232.737664 
L 198.447731 -230.415051 
L 195.022295 -228.114044 
L 191.596859 -225.834051 
L 188.171423 -223.574453 
L 184.745987 -221.334608 
L 181.32055 -219.113856 
L 177.895114 -216.911528 
L 174.469678 -214.72695 
L 171.044242 -212.559446 
L 167.618806 -210.408344 
L 164.193369 -208.272979 
L 160.767933 -206.152696 
L 157.342497 -204.046855 
L 153.917061 -201.954828 
L 150.491625 -199.876008 
L 147.066189 -197.809805 
L 143.640752 -195.755648 
L 140.215316 -193.712987 
L 136.78988 -191.681293 
L 133.364444 -189.66006 
L 129.939008 -187.648801 
L 126.513572 -185.64705 
L 123.088135 -183.654363 
L 119.662699 -181.670317 
L 116.237263 -179.694506 
L 112.811827 -177.726547 
L 109.386391 -175.766074 
L 105.960954 -173.812737 
L 102.535518 -171.866207 
L 99.110082 -169.926169 
L 95.684646 -167.992326 
L 92.25921 -166.064394 
L 88.833774 -164.142104 
L 85.408337 -162.225201 
L 81.982901 -160.313445 
L 78.557465 -158.406604 
L 75.132029 -156.504463 
L 71.706593 -154.606814 
L 68.281156 -152.713461 
L 64.85572 -150.82422 
L 61.430284 -148.938912 
z
"/>
    </defs>
    <g clip-path="url(#p16646fc67b)">
     <use xlink:href="#m8f9a108204" x="0" y="424.2675" style="fill: #74add1; fill-opacity: 0.15"/>
    </g>
   </g>
   <g id="patch_3">
    <path d="M 44.474375 382.84 
L 44.474375 7.2 
" style="fill: none; stroke: #000000; stroke-width: 0.8; stroke-linejoin: miter; stroke-linecap: square"/>
   </g>
   <g id="patch_4">
    <path d="M 417.504375 382.84 
L 417.504375 7.2 
" style="fill: none; stroke: #000000; stroke-width: 0.8; stroke-linejoin: miter; stroke-linecap: square"/>
   </g>
   <g id="patch_5">
    <path d="M 44.474375 382.84 
L 417.504375 382.84 
" style="fill: none; stroke: #000000; stroke-width: 0.8; stroke-linejoin: miter; stroke-linecap: square"/>
   </g>
   <g id="patch_6">
    <path d="M 44.474375 7.2 
L 417.504375 7.2 
" style="fill: none; stroke: #000000; stroke-width: 0.8; stroke-linejoin: miter; stroke-linecap: square"/>
   </g>
   <g id="line2d_13">
    <path d="M 61.430284 320.547021 
L 64.85572 318.011122 
L 68.281156 315.475222 
L 71.706593 312.939323 
L 75.132029 310.403423 
L 78.557465 307.867524 
L 81.982901 305.331625 
L 85.408337 302.795725 
L 88.833774 300.259826 
L 92.25921 297.723926 
L 95.684646 295.188027 
L 99.110082 292.652128 
L 102.535518 290.116228 
L 105.960954 287.580329 
L 109.386391 285.044429 
L 112.811827 282.50853 
L 116.237263 279.97263 
L 119.662699 277.436731 
L 123.088135 274.900832 
L 126.513572 272.364932 
L 129.939008 269.829033 
L 133.364444 267.293133 
L 136.78988 264.757234 
L 140.215316 262.221335 
L 143.640752 259.685435 
L 147.066189 257.149536 
L 150.491625 254.613636 
L 153.917061 252.077737 
L 157.342497 249.541837 
L 160.767933 247.005938 
L 164.193369 244.470039 
L 167.618806 241.934139 
L 171.044242 239.39824 
L 174.469678 236.86234 
L 177.895114 234.326441 
L 181.32055 231.790542 
L 184.745987 229.254642 
L 188.171423 226.718743 
L 191.596859 224.182843 
L 195.022295 221.646944 
L 198.447731 219.111044 
L 201.873167 216.575145 
L 205.298604 214.039246 
L 208.72404 211.503346 
L 212.149476 208.967447 
L 215.574912 206.431547 
L 219.000348 203.895648 
L 222.425785 201.359749 
L 225.851221 198.823849 
L 229.276657 196.28795 
L 232.702093 193.75205 
L 236.127529 191.216151 
L 239.552965 188.680251 
L 242.978402 186.144352 
L 246.403838 183.608453 
L 249.829274 181.072553 
L 253.25471 178.536654 
L 256.680146 176.000754 
L 260.105583 173.464855 
L 263.531019 170.928956 
L 266.956455 168.393056 
L 270.381891 165.857157 
L 273.807327 163.321257 
L 277.232763 160.785358 
L 280.6582 158.249458 
L 284.083636 155.713559 
L 287.509072 153.17766 
L 290.934508 150.64176 
L 294.359944 148.105861 
L 297.785381 145.569961 
L 301.210817 143.034062 
L 304.636253 140.498163 
L 308.061689 137.962263 
L 311.487125 135.426364 
L 314.912561 132.890464 
L 318.337998 130.354565 
L 321.763434 127.818665 
L 325.18887 125.282766 
L 328.614306 122.746867 
L 332.039742 120.210967 
L 335.465178 117.675068 
L 338.890615 115.139168 
L 342.316051 112.603269 
L 345.741487 110.06737 
L 349.166923 107.53147 
L 352.592359 104.995571 
L 356.017796 102.459671 
L 359.443232 99.923772 
L 362.868668 97.387872 
L 366.294104 94.851973 
L 369.71954 92.316074 
L 373.144976 89.780174 
L 376.570413 87.244275 
L 379.995849 84.708375 
L 383.421285 82.172476 
L 386.846721 79.636577 
L 390.272157 77.100677 
L 393.697594 74.564778 
L 397.12303 72.028878 
L 400.548466 69.492979 
" clip-path="url(#p16646fc67b)" style="fill: none; stroke-dasharray: 5.55,2.4; stroke-dashoffset: 0; stroke: #74add1; stroke-opacity: 0.85; stroke-width: 1.5"/>
   </g>
   <g id="text_15">
    <!-- Spearman $\rho$=0.93 -->
    <g transform="translate(63.125875 31.31935) scale(0.12 -0.12)">
     <defs>
      <path id="DejaVuSans-53" d="M 3425 4513 
L 3425 3897 
Q 3066 4069 2747 4153 
Q 2428 4238 2131 4238 
Q 1616 4238 1336 4038 
Q 1056 3838 1056 3469 
Q 1056 3159 1242 3001 
Q 1428 2844 1947 2747 
L 2328 2669 
Q 3034 2534 3370 2195 
Q 3706 1856 3706 1288 
Q 3706 609 3251 259 
Q 2797 -91 1919 -91 
Q 1588 -91 1214 -16 
Q 841 59 441 206 
L 441 856 
Q 825 641 1194 531 
Q 1563 422 1919 422 
Q 2459 422 2753 634 
Q 3047 847 3047 1241 
Q 3047 1584 2836 1778 
Q 2625 1972 2144 2069 
L 1759 2144 
Q 1053 2284 737 2584 
Q 422 2884 422 3419 
Q 422 4038 858 4394 
Q 1294 4750 2059 4750 
Q 2388 4750 2728 4690 
Q 3069 4631 3425 4513 
z
" transform="scale(0.015625)"/>
      <path id="DejaVuSans-Oblique-3c1" d="M 1203 2875 
Q 1453 3194 1981 3475 
Q 2188 3584 2756 3584 
Q 3394 3584 3694 3078 
Q 3994 2572 3834 1747 
Q 3672 922 3175 415 
Q 2678 -91 2041 -91 
Q 1656 -91 1409 63 
Q 1163 213 1044 525 
L 681 -1331 
L 103 -1331 
L 697 1716 
Q 838 2438 1203 2875 
z
M 3238 1747 
Q 3359 2381 3169 2744 
Q 2978 3103 2522 3103 
Q 2066 3103 1734 2744 
Q 1403 2381 1281 1747 
Q 1156 1113 1347 750 
Q 1538 391 1994 391 
Q 2450 391 2781 750 
Q 3113 1113 3238 1747 
z
" transform="scale(0.015625)"/>
      <path id="DejaVuSans-3d" d="M 678 2906 
L 4684 2906 
L 4684 2381 
L 678 2381 
L 678 2906 
z
M 678 1631 
L 4684 1631 
L 4684 1100 
L 678 1100 
L 678 1631 
z
" transform="scale(0.015625)"/>
      <path id="DejaVuSans-2e" d="M 684 794 
L 1344 794 
L 1344 0 
L 684 0 
L 684 794 
z
" transform="scale(0.015625)"/>
      <path id="DejaVuSans-39" d="M 703 97 
L 703 672 
Q 941 559 1184 500 
Q 1428 441 1663 441 
Q 2288 441 2617 861 
Q 2947 1281 2994 2138 
Q 2813 1869 2534 1725 
Q 2256 1581 1919 1581 
Q 1219 1581 811 2004 
Q 403 2428 403 3163 
Q 403 3881 828 4315 
Q 1253 4750 1959 4750 
Q 2769 4750 3195 4129 
Q 3622 3509 3622 2328 
Q 3622 1225 3098 567 
Q 2575 -91 1691 -91 
Q 1453 -91 1209 -44 
Q 966 3 703 97 
z
M 1959 2075 
Q 2384 2075 2632 2365 
Q 2881 2656 2881 3163 
Q 2881 3666 2632 3958 
Q 2384 4250 1959 4250 
Q 1534 4250 1286 3958 
Q 1038 3666 1038 3163 
Q 1038 2656 1286 2365 
Q 1534 2075 1959 2075 
z
" transform="scale(0.015625)"/>
      <path id="DejaVuSans-33" d="M 2597 2516 
Q 3050 2419 3304 2112 
Q 3559 1806 3559 1356 
Q 3559 666 3084 287 
Q 2609 -91 1734 -91 
Q 1441 -91 1130 -33 
Q 819 25 488 141 
L 488 750 
Q 750 597 1062 519 
Q 1375 441 1716 441 
Q 2309 441 2620 675 
Q 2931 909 2931 1356 
Q 2931 1769 2642 2001 
Q 2353 2234 1838 2234 
L 1294 2234 
L 1294 2753 
L 1863 2753 
Q 2328 2753 2575 2939 
Q 2822 3125 2822 3475 
Q 2822 3834 2567 4026 
Q 2313 4219 1838 4219 
Q 1578 4219 1281 4162 
Q 984 4106 628 3988 
L 628 4550 
Q 988 4650 1302 4700 
Q 1616 4750 1894 4750 
Q 2613 4750 3031 4423 
Q 3450 4097 3450 3541 
Q 3450 3153 3228 2886 
Q 3006 2619 2597 2516 
z
" transform="scale(0.015625)"/>
     </defs>
     <use xlink:href="#DejaVuSans-53" transform="translate(0 0.78125)"/>
     <use xlink:href="#DejaVuSans-70" transform="translate(63.476562 0.78125)"/>
     <use xlink:href="#DejaVuSans-65" transform="translate(126.953125 0.78125)"/>
     <use xlink:href="#DejaVuSans-61" transform="translate(188.476562 0.78125)"/>
     <use xlink:href="#DejaVuSans-72" transform="translate(249.755859 0.78125)"/>
     <use xlink:href="#DejaVuSans-6d" transform="translate(290.869141 0.78125)"/>
     <use xlink:href="#DejaVuSans-61" transform="translate(388.28125 0.78125)"/>
     <use xlink:href="#DejaVuSans-6e" transform="translate(449.560547 0.78125)"/>
     <use xlink:href="#DejaVuSans-20" transform="translate(512.939453 0.78125)"/>
     <use xlink:href="#DejaVuSans-Oblique-3c1" transform="translate(544.726562 0.78125)"/>
     <use xlink:href="#DejaVuSans-3d" transform="translate(608.203125 0.78125)"/>
     <use xlink:href="#DejaVuSans-30" transform="translate(691.992188 0.78125)"/>
     <use xlink:href="#DejaVuSans-2e" transform="translate(755.615234 0.78125)"/>
     <use xlink:href="#DejaVuSans-39" transform="translate(787.402344 0.78125)"/>
     <use xlink:href="#DejaVuSans-33" transform="translate(851.025391 0.78125)"/>
    </g>
    <!-- Pearson $r$=0.93 -->
    <g transform="translate(63.125875 44.7811) scale(0.12 -0.12)">
     <defs>
      <path id="DejaVuSans-73" d="M 2834 3397 
L 2834 2853 
Q 2591 2978 2328 3040 
Q 2066 3103 1784 3103 
Q 1356 3103 1142 2972 
Q 928 2841 928 2578 
Q 928 2378 1081 2264 
Q 1234 2150 1697 2047 
L 1894 2003 
Q 2506 1872 2764 1633 
Q 3022 1394 3022 966 
Q 3022 478 2636 193 
Q 2250 -91 1575 -91 
Q 1294 -91 989 -36 
Q 684 19 347 128 
L 347 722 
Q 666 556 975 473 
Q 1284 391 1588 391 
Q 1994 391 2212 530 
Q 2431 669 2431 922 
Q 2431 1156 2273 1281 
Q 2116 1406 1581 1522 
L 1381 1569 
Q 847 1681 609 1914 
Q 372 2147 372 2553 
Q 372 3047 722 3315 
Q 1072 3584 1716 3584 
Q 2034 3584 2315 3537 
Q 2597 3491 2834 3397 
z
" transform="scale(0.015625)"/>
      <path id="DejaVuSans-6f" d="M 1959 3097 
Q 1497 3097 1228 2736 
Q 959 2375 959 1747 
Q 959 1119 1226 758 
Q 1494 397 1959 397 
Q 2419 397 2687 759 
Q 2956 1122 2956 1747 
Q 2956 2369 2687 2733 
Q 2419 3097 1959 3097 
z
M 1959 3584 
Q 2709 3584 3137 3096 
Q 3566 2609 3566 1747 
Q 3566 888 3137 398 
Q 2709 -91 1959 -91 
Q 1206 -91 779 398 
Q 353 888 353 1747 
Q 353 2609 779 3096 
Q 1206 3584 1959 3584 
z
" transform="scale(0.015625)"/>
      <path id="DejaVuSans-Oblique-72" d="M 2853 2969 
Q 2766 3016 2653 3041 
Q 2541 3066 2413 3066 
Q 1953 3066 1609 2717 
Q 1266 2369 1153 1784 
L 800 0 
L 225 0 
L 909 3500 
L 1484 3500 
L 1375 2956 
Q 1603 3259 1920 3421 
Q 2238 3584 2597 3584 
Q 2691 3584 2781 3573 
Q 2872 3563 2963 3538 
L 2853 2969 
z
" transform="scale(0.015625)"/>
     </defs>
     <use xlink:href="#DejaVuSans-50" transform="translate(0 0.78125)"/>
     <use xlink:href="#DejaVuSans-65" transform="translate(60.302734 0.78125)"/>
     <use xlink:href="#DejaVuSans-61" transform="translate(121.826172 0.78125)"/>
     <use xlink:href="#DejaVuSans-72" transform="translate(183.105469 0.78125)"/>
     <use xlink:href="#DejaVuSans-73" transform="translate(224.21875 0.78125)"/>
     <use xlink:href="#DejaVuSans-6f" transform="translate(276.318359 0.78125)"/>
     <use xlink:href="#DejaVuSans-6e" transform="translate(337.5 0.78125)"/>
     <use xlink:href="#DejaVuSans-20" transform="translate(400.878906 0.78125)"/>
     <use xlink:href="#DejaVuSans-Oblique-72" transform="translate(432.666016 0.78125)"/>
     <use xlink:href="#DejaVuSans-3d" transform="translate(473.779297 0.78125)"/>
     <use xlink:href="#DejaVuSans-30" transform="translate(557.568359 0.78125)"/>
     <use xlink:href="#DejaVuSans-2e" transform="translate(621.191406 0.78125)"/>
     <use xlink:href="#DejaVuSans-39" transform="translate(652.978516 0.78125)"/>
     <use xlink:href="#DejaVuSans-33" transform="translate(716.601562 0.78125)"/>
    </g>
   </g>
   <g id="PathCollection_1">
    <defs>
     <path id="mc9c9c30b85" d="M 0 2.738613 
C 0.726289 2.738613 1.422928 2.450055 1.936492 1.936492 
C 2.450055 1.422928 2.738613 0.726289 2.738613 0 
C 2.738613 -0.726289 2.450055 -1.422928 1.936492 -1.936492 
C 1.422928 -2.450055 0.726289 -2.738613 0 -2.738613 
C -0.726289 -2.738613 -1.422928 -2.450055 -1.936492 -1.936492 
C -2.450055 -1.422928 -2.738613 -0.726289 -2.738613 0 
C -2.738613 0.726289 -2.450055 1.422928 -1.936492 1.936492 
C -1.422928 2.450055 -0.726289 2.738613 0 2.738613 
z
" style="stroke: #74add1; stroke-opacity: 0.9"/>
    </defs>
    <g clip-path="url(#p16646fc67b)">
     <use xlink:href="#mc9c9c30b85" x="400.548466" y="59.647722" style="fill: #74add1; fill-opacity: 0.9; stroke: #74add1; stroke-opacity: 0.9"/>
     <use xlink:href="#mc9c9c30b85" x="129.25392" y="330.392278" style="fill: #74add1; fill-opacity: 0.9; stroke: #74add1; stroke-opacity: 0.9"/>
     <use xlink:href="#mc9c9c30b85" x="230.989375" y="222.094456" style="fill: #74add1; fill-opacity: 0.9; stroke: #74add1; stroke-opacity: 0.9"/>
     <use xlink:href="#mc9c9c30b85" x="163.165739" y="195.02" style="fill: #74add1; fill-opacity: 0.9; stroke: #74add1; stroke-opacity: 0.9"/>
     <use xlink:href="#mc9c9c30b85" x="332.72483" y="140.871089" style="fill: #74add1; fill-opacity: 0.9; stroke: #74add1; stroke-opacity: 0.9"/>
     <use xlink:href="#mc9c9c30b85" x="197.077557" y="249.168911" style="fill: #74add1; fill-opacity: 0.9; stroke: #74add1; stroke-opacity: 0.9"/>
     <use xlink:href="#mc9c9c30b85" x="366.636648" y="86.722178" style="fill: #74add1; fill-opacity: 0.9; stroke: #74add1; stroke-opacity: 0.9"/>
     <use xlink:href="#mc9c9c30b85" x="95.342102" y="303.317822" style="fill: #74add1; fill-opacity: 0.9; stroke: #74add1; stroke-opacity: 0.9"/>
     <use xlink:href="#mc9c9c30b85" x="61.430284" y="276.243367" style="fill: #74add1; fill-opacity: 0.9; stroke: #74add1; stroke-opacity: 0.9"/>
     <use xlink:href="#mc9c9c30b85" x="298.813011" y="113.796633" style="fill: #74add1; fill-opacity: 0.9; stroke: #74add1; stroke-opacity: 0.9"/>
     <use xlink:href="#mc9c9c30b85" x="264.901193" y="167.945544" style="fill: #74add1; fill-opacity: 0.9; stroke: #74add1; stroke-opacity: 0.9"/>
    </g>
   </g>
  </g>
 </g>
 <defs>
  <clipPath id="p16646fc67b">
   <rect x="44.474375" y="7.2" width="373.03" height="375.64"/>
  </clipPath>
 </defs>
</svg>
