<?xml version="1.0" encoding="utf-8" standalone="no"?>
<!DOCTYPE svg PUBLIC "-//W3C//DTD SVG 1.1//EN"
  "http://www.w3.org/Graphics/SVG/1.1/DTD/svg11.dtd">
<svg xmlns:xlink="http://www.w3.org/1999/xlink" width="424.704375pt" height="424.2675pt" viewBox="0 0 424.704375 424.2675" xmlns="http://www.w3.org/2000/svg" version="1.1">
 <metadata>
  <rdf:RDF xmlns:dc="http://purl.org/dc/elements/1.1/" xmlns:cc="http://creativecommons.org/ns#" xmlns:rdf="http://www.w3.org/1999/02/22-rdf-syntax-ns#">
   <cc:Work>
    <dc:type rdf:resource="http://purl.org/dc/dcmitype/StillImage"/>
    <dc:date>2026-01-27T18:27:41.218029</dc:date>
    <dc:format>image/svg+xml</dc:format>
    <dc:creator>
     <cc:Agent>
      <dc:title>Matplotlib v3.10.8, https://matplotlib.org/</dc:title>
     </cc:Agent>
    </dc:creator>
   </cc:Work>
  </rdf:RDF>
 </metadata>
 <defs>
  <style type="text/css">*{stroke-linejoin: round; stroke-linecap: butt}</style>
 </defs>
 <g id="figure_1">
  <g id="patch_1">
   <path d="M 0 424.2675 
L 424.704375 424.2675 
L 424.704375 0 
L 0 0 
z
" style="fill: #ffffff"/>
  </g>
  <g id="axes_1">
   <g id="patch_2">
    <path d="M 44.474375 382.84 
L 417.504375 382.84 
L 417.504375 7.2 
L 44.474375 7.2 
z
" style="fill: #ffffff"/>
   </g>
   <g id="matplotlib.axis_1">
    <g id="xtick_1">
     <g id="line2d_1">
      <defs>
       <path id="m06ebe073d8" d="M 0 0 
L 0 3.5 
" style="stroke: #000000; stroke-width: 0.8"/>
      </defs>
      <g>
       <use xlink:href="#m06ebe073d8" x="47.30036" y="382.84" style="stroke: #000000; stroke-width: 0.8"/>
      </g>
     </g>
     <g id="text_1">
      <!-- 0 -->
      <g transform="translate(44.11911 397.438437) scale(0.1 -0.1)">
       <defs>
        <path id="DejaVuSans-30" d="M 2034 4250 
Q 1547 4250 1301 3770 
Q 1056 3291 1056 2328 
Q 1056 1369 1301 889 
Q 1547 409 2034 409 
Q 2525 409 2770 889 
Q 3016 1369 3016 2328 
Q 3016 3291 2770 3770 
Q 2525 4250 2034 4250 
z
M 2034 4750 
Q 2819 4750 3233 4129 
Q 3647 3509 3647 2328 
Q 3647 1150 3233 529 
Q 2819 -91 2034 -91 
Q 1250 -91 836 529 
Q 422 1150 422 2328 
Q 422 3509 836 4129 
Q 1250 4750 2034 4750 
z
" transform="scale(0.015625)"/>
       </defs>
       <use xlink:href="#DejaVuSans-30"/>
      </g>
     </g>
    </g>
    <g id="xtick_2">
     <g id="line2d_2">
      <g>
       <use xlink:href="#m06ebe073d8" x="117.949981" y="382.84" style="stroke: #000000; stroke-width: 0.8"/>
      </g>
     </g>
     <g id="text_2">
      <!-- 5 -->
      <g transform="translate(114.768731 397.438437) scale(0.1 -0.1)">
       <defs>
        <path id="DejaVuSans-35" d="M 691 4666 
L 3169 4666 
L 3169 4134 
L 1269 4134 
L 1269 2991 
Q 1406 3038 1543 3061 
Q 1681 3084 1819 3084 
Q 2600 3084 3056 2656 
Q 3513 2228 3513 1497 
Q 3513 744 3044 326 
Q 2575 -91 1722 -91 
Q 1428 -91 1123 -41 
Q 819 9 494 109 
L 494 744 
Q 775 591 1075 516 
Q 1375 441 1709 441 
Q 2250 441 2565 725 
Q 2881 1009 2881 1497 
Q 2881 1984 2565 2268 
Q 2250 2553 1709 2553 
Q 1456 2553 1204 2497 
Q 953 2441 691 2322 
L 691 4666 
z
" transform="scale(0.015625)"/>
       </defs>
       <use xlink:href="#DejaVuSans-35"/>
      </g>
     </g>
    </g>
    <g id="xtick_3">
     <g id="line2d_3">
      <g>
       <use xlink:href="#m06ebe073d8" x="188.599602" y="382.84" style="stroke: #000000; stroke-width: 0.8"/>
      </g>
     </g>
     <g id="text_3">
      <!-- 10 -->
      <g transform="translate(182.237102 397.438437) scale(0.1 -0.1)">
       <defs>
        <path id="DejaVuSans-31" d="M 794 531 
L 1825 531 
L 1825 4091 
L 703 3866 
L 703 4441 
L 1819 4666 
L 2450 4666 
L 2450 531 
L 3481 531 
L 3481 0 
L 794 0 
L 794 531 
z
" transform="scale(0.015625)"/>
       </defs>
       <use xlink:href="#DejaVuSans-31"/>
       <use xlink:href="#DejaVuSans-30" transform="translate(63.623047 0)"/>
      </g>
     </g>
    </g>
    <g id="xtick_4">
     <g id="line2d_4">
      <g>
       <use xlink:href="#m06ebe073d8" x="259.249223" y="382.84" style="stroke: #000000; stroke-width: 0.8"/>
      </g>
     </g>
     <g id="text_4">
      <!-- 15 -->
      <g transform="translate(252.886723 397.438437) scale(0.1 -0.1)">
       <use xlink:href="#DejaVuSans-31"/>
       <use xlink:href="#DejaVuSans-35" transform="translate(63.623047 0)"/>
      </g>
     </g>
    </g>
    <g id="xtick_5">
     <g id="line2d_5">
      <g>
       <use xlink:href="#m06ebe073d8" x="329.898845" y="382.84" style="stroke: #000000; stroke-width: 0.8"/>
      </g>
     </g>
     <g id="text_5">
      <!-- 20 -->
      <g transform="translate(323.536345 397.438437) scale(0.1 -0.1)">
       <defs>
        <path id="DejaVuSans-32" d="M 1228 531 
L 3431 531 
L 3431 0 
L 469 0 
L 469 531 
Q 828 903 1448 1529 
Q 2069 2156 2228 2338 
Q 2531 2678 2651 2914 
Q 2772 3150 2772 3378 
Q 2772 3750 2511 3984 
Q 2250 4219 1831 4219 
Q 1534 4219 1204 4116 
Q 875 4013 500 3803 
L 500 4441 
Q 881 4594 1212 4672 
Q 1544 4750 1819 4750 
Q 2544 4750 2975 4387 
Q 3406 4025 3406 3419 
Q 3406 3131 3298 2873 
Q 3191 2616 2906 2266 
Q 2828 2175 2409 1742 
Q 1991 1309 1228 531 
z
" transform="scale(0.015625)"/>
       </defs>
       <use xlink:href="#DejaVuSans-32"/>
       <use xlink:href="#DejaVuSans-30" transform="translate(63.623047 0)"/>
      </g>
     </g>
    </g>
    <g id="xtick_6">
     <g id="line2d_6">
      <g>
       <use xlink:href="#m06ebe073d8" x="400.548466" y="382.84" style="stroke: #000000; stroke-width: 0.8"/>
      </g>
     </g>
     <g id="text_6">
      <!-- 25 -->
      <g transform="translate(394.185966 397.438437) scale(0.1 -0.1)">
       <use xlink:href="#DejaVuSans-32"/>
       <use xlink:href="#DejaVuSans-35" transform="translate(63.623047 0)"/>
      </g>
     </g>
    </g>
    <g id="text_7">
     <!-- Experimental Rank -->
     <g transform="translate(164.59875 414.155937) scale(0.14 -0.14)">
      <defs>
       <path id="DejaVuSans-45" d="M 628 4666 
L 3578 4666 
L 3578 4134 
L 1259 4134 
L 1259 2753 
L 3481 2753 
L 3481 2222 
L 1259 2222 
L 1259 531 
L 3634 531 
L 3634 0 
L 628 0 
L 628 4666 
z
" transform="scale(0.015625)"/>
       <path id="DejaVuSans-78" d="M 3513 3500 
L 2247 1797 
L 3578 0 
L 2900 0 
L 1881 1375 
L 863 0 
L 184 0 
L 1544 1831 
L 300 3500 
L 978 3500 
L 1906 2253 
L 2834 3500 
L 3513 3500 
z
" transform="scale(0.015625)"/>
       <path id="DejaVuSans-70" d="M 1159 525 
L 1159 -1331 
L 581 -1331 
L 581 3500 
L 1159 3500 
L 1159 2969 
Q 1341 3281 1617 3432 
Q 1894 3584 2278 3584 
Q 2916 3584 3314 3078 
Q 3713 2572 3713 1747 
Q 3713 922 3314 415 
Q 2916 -91 2278 -91 
Q 1894 -91 1617 61 
Q 1341 213 1159 525 
z
M 3116 1747 
Q 3116 2381 2855 2742 
Q 2594 3103 2138 3103 
Q 1681 3103 1420 2742 
Q 1159 2381 1159 1747 
Q 1159 1113 1420 752 
Q 1681 391 2138 391 
Q 2594 391 2855 752 
Q 3116 1113 3116 1747 
z
" transform="scale(0.015625)"/>
       <path id="DejaVuSans-65" d="M 3597 1894 
L 3597 1613 
L 953 1613 
Q 991 1019 1311 708 
Q 1631 397 2203 397 
Q 2534 397 2845 478 
Q 3156 559 3463 722 
L 3463 178 
Q 3153 47 2828 -22 
Q 2503 -91 2169 -91 
Q 1331 -91 842 396 
Q 353 884 353 1716 
Q 353 2575 817 3079 
Q 1281 3584 2069 3584 
Q 2775 3584 3186 3129 
Q 3597 2675 3597 1894 
z
M 3022 2063 
Q 3016 2534 2758 2815 
Q 2500 3097 2075 3097 
Q 1594 3097 1305 2825 
Q 1016 2553 972 2059 
L 3022 2063 
z
" transform="scale(0.015625)"/>
       <path id="DejaVuSans-72" d="M 2631 2963 
Q 2534 3019 2420 3045 
Q 2306 3072 2169 3072 
Q 1681 3072 1420 2755 
Q 1159 2438 1159 1844 
L 1159 0 
L 581 0 
L 581 3500 
L 1159 3500 
L 1159 2956 
Q 1341 3275 1631 3429 
Q 1922 3584 2338 3584 
Q 2397 3584 2469 3576 
Q 2541 3569 2628 3553 
L 2631 2963 
z
" transform="scale(0.015625)"/>
       <path id="DejaVuSans-69" d="M 603 3500 
L 1178 3500 
L 1178 0 
L 603 0 
L 603 3500 
z
M 603 4863 
L 1178 4863 
L 1178 4134 
L 603 4134 
L 603 4863 
z
" transform="scale(0.015625)"/>
       <path id="DejaVuSans-6d" d="M 3328 2828 
Q 3544 3216 3844 3400 
Q 4144 3584 4550 3584 
Q 5097 3584 5394 3201 
Q 5691 2819 5691 2113 
L 5691 0 
L 5113 0 
L 5113 2094 
Q 5113 2597 4934 2840 
Q 4756 3084 4391 3084 
Q 3944 3084 3684 2787 
Q 3425 2491 3425 1978 
L 3425 0 
L 2847 0 
L 2847 2094 
Q 2847 2600 2669 2842 
Q 2491 3084 2119 3084 
Q 1678 3084 1418 2786 
Q 1159 2488 1159 1978 
L 1159 0 
L 581 0 
L 581 3500 
L 1159 3500 
L 1159 2956 
Q 1356 3278 1631 3431 
Q 1906 3584 2284 3584 
Q 2666 3584 2933 3390 
Q 3200 3197 3328 2828 
z
" transform="scale(0.015625)"/>
       <path id="DejaVuSans-6e" d="M 3513 2113 
L 3513 0 
L 2938 0 
L 2938 2094 
Q 2938 2591 2744 2837 
Q 2550 3084 2163 3084 
Q 1697 3084 1428 2787 
Q 1159 2491 1159 1978 
L 1159 0 
L 581 0 
L 581 3500 
L 1159 3500 
L 1159 2956 
Q 1366 3272 1645 3428 
Q 1925 3584 2291 3584 
Q 2894 3584 3203 3211 
Q 3513 2838 3513 2113 
z
" transform="scale(0.015625)"/>
       <path id="DejaVuSans-74" d="M 1172 4494 
L 1172 3500 
L 2356 3500 
L 2356 3053 
L 1172 3053 
L 1172 1153 
Q 1172 725 1289 603 
Q 1406 481 1766 481 
L 2356 481 
L 2356 0 
L 1766 0 
Q 1100 0 847 248 
Q 594 497 594 1153 
L 594 3053 
L 172 3053 
L 172 3500 
L 594 3500 
L 594 4494 
L 1172 4494 
z
" transform="scale(0.015625)"/>
       <path id="DejaVuSans-61" d="M 2194 1759 
Q 1497 1759 1228 1600 
Q 959 1441 959 1056 
Q 959 750 1161 570 
Q 1363 391 1709 391 
Q 2188 391 2477 730 
Q 2766 1069 2766 1631 
L 2766 1759 
L 2194 1759 
z
M 3341 1997 
L 3341 0 
L 2766 0 
L 2766 531 
Q 2569 213 2275 61 
Q 1981 -91 1556 -91 
Q 1019 -91 701 211 
Q 384 513 384 1019 
Q 384 1609 779 1909 
Q 1175 2209 1959 2209 
L 2766 2209 
L 2766 2266 
Q 2766 2663 2505 2880 
Q 2244 3097 1772 3097 
Q 1472 3097 1187 3025 
Q 903 2953 641 2809 
L 641 3341 
Q 956 3463 1253 3523 
Q 1550 3584 1831 3584 
Q 2591 3584 2966 3190 
Q 3341 2797 3341 1997 
z
" transform="scale(0.015625)"/>
       <path id="DejaVuSans-6c" d="M 603 4863 
L 1178 4863 
L 1178 0 
L 603 0 
L 603 4863 
z
" transform="scale(0.015625)"/>
       <path id="DejaVuSans-20" transform="scale(0.015625)"/>
       <path id="DejaVuSans-52" d="M 2841 2188 
Q 3044 2119 3236 1894 
Q 3428 1669 3622 1275 
L 4263 0 
L 3584 0 
L 2988 1197 
Q 2756 1666 2539 1819 
Q 2322 1972 1947 1972 
L 1259 1972 
L 1259 0 
L 628 0 
L 628 4666 
L 2053 4666 
Q 2853 4666 3247 4331 
Q 3641 3997 3641 3322 
Q 3641 2881 3436 2590 
Q 3231 2300 2841 2188 
z
M 1259 4147 
L 1259 2491 
L 2053 2491 
Q 2509 2491 2742 2702 
Q 2975 2913 2975 3322 
Q 2975 3731 2742 3939 
Q 2509 4147 2053 4147 
L 1259 4147 
z
" transform="scale(0.015625)"/>
       <path id="DejaVuSans-6b" d="M 581 4863 
L 1159 4863 
L 1159 1991 
L 2875 3500 
L 3609 3500 
L 1753 1863 
L 3688 0 
L 2938 0 
L 1159 1709 
L 1159 0 
L 581 0 
L 581 4863 
z
" transform="scale(0.015625)"/>
      </defs>
      <use xlink:href="#DejaVuSans-45"/>
      <use xlink:href="#DejaVuSans-78" transform="translate(63.183594 0)"/>
      <use xlink:href="#DejaVuSans-70" transform="translate(122.363281 0)"/>
      <use xlink:href="#DejaVuSans-65" transform="translate(185.839844 0)"/>
      <use xlink:href="#DejaVuSans-72" transform="translate(247.363281 0)"/>
      <use xlink:href="#DejaVuSans-69" transform="translate(288.476562 0)"/>
      <use xlink:href="#DejaVuSans-6d" transform="translate(316.259766 0)"/>
      <use xlink:href="#DejaVuSans-65" transform="translate(413.671875 0)"/>
      <use xlink:href="#DejaVuSans-6e" transform="translate(475.195312 0)"/>
      <use xlink:href="#DejaVuSans-74" transform="translate(538.574219 0)"/>
      <use xlink:href="#DejaVuSans-61" transform="translate(577.783203 0)"/>
      <use xlink:href="#DejaVuSans-6c" transform="translate(639.0625 0)"/>
      <use xlink:href="#DejaVuSans-20" transform="translate(666.845703 0)"/>
      <use xlink:href="#DejaVuSans-52" transform="translate(698.632812 0)"/>
      <use xlink:href="#DejaVuSans-61" transform="translate(765.865234 0)"/>
      <use xlink:href="#DejaVuSans-6e" transform="translate(827.144531 0)"/>
      <use xlink:href="#DejaVuSans-6b" transform="translate(890.523438 0)"/>
     </g>
    </g>
   </g>
   <g id="matplotlib.axis_2">
    <g id="ytick_1">
     <g id="line2d_7">
      <defs>
       <path id="mb0d6e56a01" d="M 0 0 
L -3.5 0 
" style="stroke: #000000; stroke-width: 0.8"/>
      </defs>
      <g>
       <use xlink:href="#mb0d6e56a01" x="44.474375" y="360.860009" style="stroke: #000000; stroke-width: 0.8"/>
      </g>
     </g>
     <g id="text_8">
      <!-- 0 -->
      <g transform="translate(31.111875 364.659228) scale(0.1 -0.1)">
       <use xlink:href="#DejaVuSans-30"/>
      </g>
     </g>
    </g>
    <g id="ytick_2">
     <g id="line2d_8">
      <g>
       <use xlink:href="#mb0d6e56a01" x="44.474375" y="297.07539" style="stroke: #000000; stroke-width: 0.8"/>
      </g>
     </g>
     <g id="text_9">
      <!-- 5 -->
      <g transform="translate(31.111875 300.874609) scale(0.1 -0.1)">
       <use xlink:href="#DejaVuSans-35"/>
      </g>
     </g>
    </g>
    <g id="ytick_3">
     <g id="line2d_9">
      <g>
       <use xlink:href="#mb0d6e56a01" x="44.474375" y="233.290771" style="stroke: #000000; stroke-width: 0.8"/>
      </g>
     </g>
     <g id="text_10">
      <!-- 10 -->
      <g transform="translate(24.749375 237.08999) scale(0.1 -0.1)">
       <use xlink:href="#DejaVuSans-31"/>
       <use xlink:href="#DejaVuSans-30" transform="translate(63.623047 0)"/>
      </g>
     </g>
    </g>
    <g id="ytick_4">
     <g id="line2d_10">
      <g>
       <use xlink:href="#mb0d6e56a01" x="44.474375" y="169.506152" style="stroke: #000000; stroke-width: 0.8"/>
      </g>
     </g>
     <g id="text_11">
      <!-- 15 -->
      <g transform="translate(24.749375 173.305371) scale(0.1 -0.1)">
       <use xlink:href="#DejaVuSans-31"/>
       <use xlink:href="#DejaVuSans-35" transform="translate(63.623047 0)"/>
      </g>
     </g>
    </g>
    <g id="ytick_5">
     <g id="line2d_11">
      <g>
       <use xlink:href="#mb0d6e56a01" x="44.474375" y="105.721534" style="stroke: #000000; stroke-width: 0.8"/>
      </g>
     </g>
     <g id="text_12">
      <!-- 20 -->
      <g transform="translate(24.749375 109.520752) scale(0.1 -0.1)">
       <use xlink:href="#DejaVuSans-32"/>
       <use xlink:href="#DejaVuSans-30" transform="translate(63.623047 0)"/>
      </g>
     </g>
    </g>
    <g id="ytick_6">
     <g id="line2d_12">
      <g>
       <use xlink:href="#mb0d6e56a01" x="44.474375" y="41.936915" style="stroke: #000000; stroke-width: 0.8"/>
      </g>
     </g>
     <g id="text_13">
      <!-- 25 -->
      <g transform="translate(24.749375 45.736133) scale(0.1 -0.1)">
       <use xlink:href="#DejaVuSans-32"/>
       <use xlink:href="#DejaVuSans-35" transform="translate(63.623047 0)"/>
      </g>
     </g>
    </g>
    <g id="text_14">
     <!-- Predicted Rank -->
     <g transform="translate(17.837813 247.588906) rotate(-90) scale(0.14 -0.14)">
      <defs>
       <path id="DejaVuSans-50" d="M 1259 4147 
L 1259 2394 
L 2053 2394 
Q 2494 2394 2734 2622 
Q 2975 2850 2975 3272 
Q 2975 3691 2734 3919 
Q 2494 4147 2053 4147 
L 1259 4147 
z
M 628 4666 
L 2053 4666 
Q 2838 4666 3239 4311 
Q 3641 3956 3641 3272 
Q 3641 2581 3239 2228 
Q 2838 1875 2053 1875 
L 1259 1875 
L 1259 0 
L 628 0 
L 628 4666 
z
" transform="scale(0.015625)"/>
       <path id="DejaVuSans-64" d="M 2906 2969 
L 2906 4863 
L 3481 4863 
L 3481 0 
L 2906 0 
L 2906 525 
Q 2725 213 2448 61 
Q 2172 -91 1784 -91 
Q 1150 -91 751 415 
Q 353 922 353 1747 
Q 353 2572 751 3078 
Q 1150 3584 1784 3584 
Q 2172 3584 2448 3432 
Q 2725 3281 2906 2969 
z
M 947 1747 
Q 947 1113 1208 752 
Q 1469 391 1925 391 
Q 2381 391 2643 752 
Q 2906 1113 2906 1747 
Q 2906 2381 2643 2742 
Q 2381 3103 1925 3103 
Q 1469 3103 1208 2742 
Q 947 2381 947 1747 
z
" transform="scale(0.015625)"/>
       <path id="DejaVuSans-63" d="M 3122 3366 
L 3122 2828 
Q 2878 2963 2633 3030 
Q 2388 3097 2138 3097 
Q 1578 3097 1268 2742 
Q 959 2388 959 1747 
Q 959 1106 1268 751 
Q 1578 397 2138 397 
Q 2388 397 2633 464 
Q 2878 531 3122 666 
L 3122 134 
Q 2881 22 2623 -34 
Q 2366 -91 2075 -91 
Q 1284 -91 818 406 
Q 353 903 353 1747 
Q 353 2603 823 3093 
Q 1294 3584 2113 3584 
Q 2378 3584 2631 3529 
Q 2884 3475 3122 3366 
z
" transform="scale(0.015625)"/>
      </defs>
      <use xlink:href="#DejaVuSans-50"/>
      <use xlink:href="#DejaVuSans-72" transform="translate(58.552734 0)"/>
      <use xlink:href="#DejaVuSans-65" transform="translate(97.416016 0)"/>
      <use xlink:href="#DejaVuSans-64" transform="translate(158.939453 0)"/>
      <use xlink:href="#DejaVuSans-69" transform="translate(222.416016 0)"/>
      <use xlink:href="#DejaVuSans-63" transform="translate(250.199219 0)"/>
      <use xlink:href="#DejaVuSans-74" transform="translate(305.179688 0)"/>
      <use xlink:href="#DejaVuSans-65" transform="translate(344.388672 0)"/>
      <use xlink:href="#DejaVuSans-64" transform="translate(405.912109 0)"/>
      <use xlink:href="#DejaVuSans-20" transform="translate(469.388672 0)"/>
      <use xlink:href="#DejaVuSans-52" transform="translate(501.175781 0)"/>
      <use xlink:href="#DejaVuSans-61" transform="translate(568.408203 0)"/>
      <use xlink:href="#DejaVuSans-6e" transform="translate(629.6875 0)"/>
      <use xlink:href="#DejaVuSans-6b" transform="translate(693.066406 0)"/>
     </g>
    </g>
   </g>
   <g id="FillBetweenPolyCollection_1">
    <defs>
     <path id="m94f9af17ef" d="M 61.430284 -115.729441 
L 61.430284 -58.502045 
L 64.85572 -61.796932 
L 68.281156 -65.089438 
L 71.706593 -68.379452 
L 75.132029 -71.66686 
L 78.557465 -74.951538 
L 81.982901 -78.233357 
L 85.408337 -81.512179 
L 88.833774 -84.787861 
L 92.25921 -88.060248 
L 95.684646 -91.329179 
L 99.110082 -94.594483 
L 102.535518 -97.85598 
L 105.960954 -101.113478 
L 109.386391 -104.366776 
L 112.811827 -107.615659 
L 116.237263 -110.859904 
L 119.662699 -114.099272 
L 123.088135 -117.333512 
L 126.513572 -120.562361 
L 129.939008 -123.785539 
L 133.364444 -127.002753 
L 136.78988 -130.213694 
L 140.215316 -133.41804 
L 143.640752 -136.615451 
L 147.066189 -139.805571 
L 150.491625 -142.988029 
L 153.917061 -146.162439 
L 157.342497 -149.328397 
L 160.767933 -152.485487 
L 164.193369 -155.633277 
L 167.618806 -158.771323 
L 171.044242 -161.899168 
L 174.469678 -165.016348 
L 177.895114 -168.122388 
L 181.32055 -171.216811 
L 184.745987 -174.299136 
L 188.171423 -177.368884 
L 191.596859 -180.425582 
L 195.022295 -183.468764 
L 198.447731 -186.497981 
L 201.873167 -189.512802 
L 205.298604 -192.512818 
L 208.72404 -195.497651 
L 212.149476 -198.466955 
L 215.574912 -201.420426 
L 219.000348 -204.357799 
L 222.425785 -207.278859 
L 225.851221 -210.183442 
L 229.276657 -213.071436 
L 232.702093 -215.942785 
L 236.127529 -218.797488 
L 239.552965 -221.635602 
L 242.978402 -224.457239 
L 246.403838 -227.262563 
L 249.829274 -230.05179 
L 253.25471 -232.825183 
L 256.680146 -235.583047 
L 260.105583 -238.325729 
L 263.531019 -241.053605 
L 266.956455 -243.767085 
L 270.381891 -246.4666 
L 273.807327 -249.1526 
L 277.232763 -251.825549 
L 280.6582 -254.485922 
L 284.083636 -257.134196 
L 287.509072 -259.770853 
L 290.934508 -262.39637 
L 294.359944 -265.011222 
L 297.785381 -267.615874 
L 301.210817 -270.210781 
L 304.636253 -272.796388 
L 308.061689 -275.373127 
L 311.487125 -277.941415 
L 314.912561 -280.501654 
L 318.337998 -283.054231 
L 321.763434 -285.599518 
L 325.18887 -288.137869 
L 328.614306 -290.669624 
L 332.039742 -293.195108 
L 335.465178 -295.714627 
L 338.890615 -298.228476 
L 342.316051 -300.736933 
L 345.741487 -303.240262 
L 349.166923 -305.738714 
L 352.592359 -308.232528 
L 356.017796 -310.721928 
L 359.443232 -313.207127 
L 362.868668 -315.688327 
L 366.294104 -318.16572 
L 369.71954 -320.639486 
L 373.144976 -323.109796 
L 376.570413 -325.576812 
L 379.995849 -328.040687 
L 383.421285 -330.501566 
L 386.846721 -332.959585 
L 390.272157 -335.414875 
L 393.697594 -337.867557 
L 397.12303 -340.317749 
L 400.548466 -342.765559 
L 400.548466 -399.992955 
L 400.548466 -399.992955 
L 397.12303 -396.698068 
L 393.697594 -393.405562 
L 390.272157 -390.115548 
L 386.846721 -386.82814 
L 383.421285 -383.543462 
L 379.995849 -380.261643 
L 376.570413 -376.982821 
L 373.144976 -373.707139 
L 369.71954 -370.434752 
L 366.294104 -367.165821 
L 362.868668 -363.900517 
L 359.443232 -360.63902 
L 356.017796 -357.381522 
L 352.592359 -354.128224 
L 349.166923 -350.879341 
L 345.741487 -347.635096 
L 342.316051 -344.395728 
L 338.890615 -341.161488 
L 335.465178 -337.932639 
L 332.039742 -334.709461 
L 328.614306 -331.492247 
L 325.18887 -328.281306 
L 321.763434 -325.07696 
L 318.337998 -321.879549 
L 314.912561 -318.689429 
L 311.487125 -315.506971 
L 308.061689 -312.332561 
L 304.636253 -309.166603 
L 301.210817 -306.009513 
L 297.785381 -302.861723 
L 294.359944 -299.723677 
L 290.934508 -296.595832 
L 287.509072 -293.478652 
L 284.083636 -290.372612 
L 280.6582 -287.278189 
L 277.232763 -284.195864 
L 273.807327 -281.126116 
L 270.381891 -278.069418 
L 266.956455 -275.026236 
L 263.531019 -271.997019 
L 260.105583 -268.982198 
L 256.680146 -265.982182 
L 253.25471 -262.997349 
L 249.829274 -260.028045 
L 246.403838 -257.074574 
L 242.978402 -254.137201 
L 239.552965 -251.216141 
L 236.127529 -248.311558 
L 232.702093 -245.423564 
L 229.276657 -242.552215 
L 225.851221 -239.697512 
L 222.425785 -236.859398 
L 219.000348 -234.037761 
L 215.574912 -231.232437 
L 212.149476 -228.44321 
L 208.72404 -225.669817 
L 205.298604 -222.911953 
L 201.873167 -220.169271 
L 198.447731 -217.441395 
L 195.022295 -214.727915 
L 191.596859 -212.0284 
L 188.171423 -209.3424 
L 184.745987 -206.669451 
L 181.32055 -204.009078 
L 177.895114 -201.360804 
L 174.469678 -198.724147 
L 171.044242 -196.09863 
L 167.618806 -193.483778 
L 164.193369 -190.879126 
L 160.767933 -188.284219 
L 157.342497 -185.698612 
L 153.917061 -183.121873 
L 150.491625 -180.553585 
L 147.066189 -177.993346 
L 143.640752 -175.440769 
L 140.215316 -172.895482 
L 136.78988 -170.357131 
L 133.364444 -167.825376 
L 129.939008 -165.299892 
L 126.513572 -162.780373 
L 123.088135 -160.266524 
L 119.662699 -157.758067 
L 116.237263 -155.254738 
L 112.811827 -152.756286 
L 109.386391 -150.262472 
L 105.960954 -147.773072 
L 102.535518 -145.287873 
L 99.110082 -142.806673 
L 95.684646 -140.32928 
L 92.25921 -137.855514 
L 88.833774 -135.385204 
L 85.408337 -132.918188 
L 81.982901 -130.454313 
L 78.557465 -127.993434 
L 75.132029 -125.535415 
L 71.706593 -123.080125 
L 68.281156 -120.627443 
L 64.85572 -118.177251 
L 61.430284 -115.729441 
z
"/>
    </defs>
    <g clip-path="url(#pec953cefbf)">
     <use xlink:href="#m94f9af17ef" x="0" y="424.2675" style="fill: #ff7f0e; fill-opacity: 0.15"/>
    </g>
   </g>
   <g id="patch_3">
    <path d="M 44.474375 382.84 
L 44.474375 7.2 
" style="fill: none; stroke: #000000; stroke-width: 0.8; stroke-linejoin: miter; stroke-linecap: square"/>
   </g>
   <g id="patch_4">
    <path d="M 417.504375 382.84 
L 417.504375 7.2 
" style="fill: none; stroke: #000000; stroke-width: 0.8; stroke-linejoin: miter; stroke-linecap: square"/>
   </g>
   <g id="patch_5">
    <path d="M 44.474375 382.84 
L 417.504375 382.84 
" style="fill: none; stroke: #000000; stroke-width: 0.8; stroke-linejoin: miter; stroke-linecap: square"/>
   </g>
   <g id="patch_6">
    <path d="M 44.474375 7.2 
L 417.504375 7.2 
" style="fill: none; stroke: #000000; stroke-width: 0.8; stroke-linejoin: miter; stroke-linecap: square"/>
   </g>
   <g id="line2d_13">
    <path d="M 61.430284 337.151757 
L 64.85572 334.280408 
L 68.281156 331.40906 
L 71.706593 328.537711 
L 75.132029 325.666362 
L 78.557465 322.795014 
L 81.982901 319.923665 
L 85.408337 317.052317 
L 88.833774 314.180968 
L 92.25921 311.309619 
L 95.684646 308.438271 
L 99.110082 305.566922 
L 102.535518 302.695573 
L 105.960954 299.824225 
L 109.386391 296.952876 
L 112.811827 294.081528 
L 116.237263 291.210179 
L 119.662699 288.33883 
L 123.088135 285.467482 
L 126.513572 282.596133 
L 129.939008 279.724784 
L 133.364444 276.853436 
L 136.78988 273.982087 
L 140.215316 271.110739 
L 143.640752 268.23939 
L 147.066189 265.368041 
L 150.491625 262.496693 
L 153.917061 259.625344 
L 157.342497 256.753995 
L 160.767933 253.882647 
L 164.193369 251.011298 
L 167.618806 248.13995 
L 171.044242 245.268601 
L 174.469678 242.397252 
L 177.895114 239.525904 
L 181.32055 236.654555 
L 184.745987 233.783206 
L 188.171423 230.911858 
L 191.596859 228.040509 
L 195.022295 225.169161 
L 198.447731 222.297812 
L 201.873167 219.426463 
L 205.298604 216.555115 
L 208.72404 213.683766 
L 212.149476 210.812417 
L 215.574912 207.941069 
L 219.000348 205.06972 
L 222.425785 202.198372 
L 225.851221 199.327023 
L 229.276657 196.455674 
L 232.702093 193.584326 
L 236.127529 190.712977 
L 239.552965 187.841628 
L 242.978402 184.97028 
L 246.403838 182.098931 
L 249.829274 179.227583 
L 253.25471 176.356234 
L 256.680146 173.484885 
L 260.105583 170.613537 
L 263.531019 167.742188 
L 266.956455 164.870839 
L 270.381891 161.999491 
L 273.807327 159.128142 
L 277.232763 156.256794 
L 280.6582 153.385445 
L 284.083636 150.514096 
L 287.509072 147.642748 
L 290.934508 144.771399 
L 294.359944 141.90005 
L 297.785381 139.028702 
L 301.210817 136.157353 
L 304.636253 133.286005 
L 308.061689 130.414656 
L 311.487125 127.543307 
L 314.912561 124.671959 
L 318.337998 121.80061 
L 321.763434 118.929261 
L 325.18887 116.057913 
L 328.614306 113.186564 
L 332.039742 110.315216 
L 335.465178 107.443867 
L 338.890615 104.572518 
L 342.316051 101.70117 
L 345.741487 98.829821 
L 349.166923 95.958472 
L 352.592359 93.087124 
L 356.017796 90.215775 
L 359.443232 87.344427 
L 362.868668 84.473078 
L 366.294104 81.601729 
L 369.71954 78.730381 
L 373.144976 75.859032 
L 376.570413 72.987683 
L 379.995849 70.116335 
L 383.421285 67.244986 
L 386.846721 64.373638 
L 390.272157 61.502289 
L 393.697594 58.63094 
L 397.12303 55.759592 
L 400.548466 52.888243 
" clip-path="url(#pec953cefbf)" style="fill: none; stroke-dasharray: 5.55,2.4; stroke-dashoffset: 0; stroke: #ff7f0e; stroke-opacity: 0.85; stroke-width: 1.5"/>
   </g>
   <g id="text_15">
    <!-- Spearman $\rho$=0.93 -->
    <g transform="translate(63.125875 31.31935) scale(0.12 -0.12)">
     <defs>
      <path id="DejaVuSans-53" d="M 3425 4513 
L 3425 3897 
Q 3066 4069 2747 4153 
Q 2428 4238 2131 4238 
Q 1616 4238 1336 4038 
Q 1056 3838 1056 3469 
Q 1056 3159 1242 3001 
Q 1428 2844 1947 2747 
L 2328 2669 
Q 3034 2534 3370 2195 
Q 3706 1856 3706 1288 
Q 3706 609 3251 259 
Q 2797 -91 1919 -91 
Q 1588 -91 1214 -16 
Q 841 59 441 206 
L 441 856 
Q 825 641 1194 531 
Q 1563 422 1919 422 
Q 2459 422 2753 634 
Q 3047 847 3047 1241 
Q 3047 1584 2836 1778 
Q 2625 1972 2144 2069 
L 1759 2144 
Q 1053 2284 737 2584 
Q 422 2884 422 3419 
Q 422 4038 858 4394 
Q 1294 4750 2059 4750 
Q 2388 4750 2728 4690 
Q 3069 4631 3425 4513 
z
" transform="scale(0.015625)"/>
      <path id="DejaVuSans-Oblique-3c1" d="M 1203 2875 
Q 1453 3194 1981 3475 
Q 2188 3584 2756 3584 
Q 3394 3584 3694 3078 
Q 3994 2572 3834 1747 
Q 3672 922 3175 415 
Q 2678 -91 2041 -91 
Q 1656 -91 1409 63 
Q 1163 213 1044 525 
L 681 -1331 
L 103 -1331 
L 697 1716 
Q 838 2438 1203 2875 
z
M 3238 1747 
Q 3359 2381 3169 2744 
Q 2978 3103 2522 3103 
Q 2066 3103 1734 2744 
Q 1403 2381 1281 1747 
Q 1156 1113 1347 750 
Q 1538 391 1994 391 
Q 2450 391 2781 750 
Q 3113 1113 3238 1747 
z
" transform="scale(0.015625)"/>
      <path id="DejaVuSans-3d" d="M 678 2906 
L 4684 2906 
L 4684 2381 
L 678 2381 
L 678 2906 
z
M 678 1631 
L 4684 1631 
L 4684 1100 
L 678 1100 
L 678 1631 
z
" transform="scale(0.015625)"/>
      <path id="DejaVuSans-2e" d="M 684 794 
L 1344 794 
L 1344 0 
L 684 0 
L 684 794 
z
" transform="scale(0.015625)"/>
      <path id="DejaVuSans-39" d="M 703 97 
L 703 672 
Q 941 559 1184 500 
Q 1428 441 1663 441 
Q 2288 441 2617 861 
Q 2947 1281 2994 2138 
Q 2813 1869 2534 1725 
Q 2256 1581 1919 1581 
Q 1219 1581 811 2004 
Q 403 2428 403 3163 
Q 403 3881 828 4315 
Q 1253 4750 1959 4750 
Q 2769 4750 3195 4129 
Q 3622 3509 3622 2328 
Q 3622 1225 3098 567 
Q 2575 -91 1691 -91 
Q 1453 -91 1209 -44 
Q 966 3 703 97 
z
M 1959 2075 
Q 2384 2075 2632 2365 
Q 2881 2656 2881 3163 
Q 2881 3666 2632 3958 
Q 2384 4250 1959 4250 
Q 1534 4250 1286 3958 
Q 1038 3666 1038 3163 
Q 1038 2656 1286 2365 
Q 1534 2075 1959 2075 
z
" transform="scale(0.015625)"/>
      <path id="DejaVuSans-33" d="M 2597 2516 
Q 3050 2419 3304 2112 
Q 3559 1806 3559 1356 
Q 3559 666 3084 287 
Q 2609 -91 1734 -91 
Q 1441 -91 1130 -33 
Q 819 25 488 141 
L 488 750 
Q 750 597 1062 519 
Q 1375 441 1716 441 
Q 2309 441 2620 675 
Q 2931 909 2931 1356 
Q 2931 1769 2642 2001 
Q 2353 2234 1838 2234 
L 1294 2234 
L 1294 2753 
L 1863 2753 
Q 2328 2753 2575 2939 
Q 2822 3125 2822 3475 
Q 2822 3834 2567 4026 
Q 2313 4219 1838 4219 
Q 1578 4219 1281 4162 
Q 984 4106 628 3988 
L 628 4550 
Q 988 4650 1302 4700 
Q 1616 4750 1894 4750 
Q 2613 4750 3031 4423 
Q 3450 4097 3450 3541 
Q 3450 3153 3228 2886 
Q 3006 2619 2597 2516 
z
" transform="scale(0.015625)"/>
     </defs>
     <use xlink:href="#DejaVuSans-53" transform="translate(0 0.78125)"/>
     <use xlink:href="#DejaVuSans-70" transform="translate(63.476562 0.78125)"/>
     <use xlink:href="#DejaVuSans-65" transform="translate(126.953125 0.78125)"/>
     <use xlink:href="#DejaVuSans-61" transform="translate(188.476562 0.78125)"/>
     <use xlink:href="#DejaVuSans-72" transform="translate(249.755859 0.78125)"/>
     <use xlink:href="#DejaVuSans-6d" transform="translate(290.869141 0.78125)"/>
     <use xlink:href="#DejaVuSans-61" transform="translate(388.28125 0.78125)"/>
     <use xlink:href="#DejaVuSans-6e" transform="translate(449.560547 0.78125)"/>
     <use xlink:href="#DejaVuSans-20" transform="translate(512.939453 0.78125)"/>
     <use xlink:href="#DejaVuSans-Oblique-3c1" transform="translate(544.726562 0.78125)"/>
     <use xlink:href="#DejaVuSans-3d" transform="translate(608.203125 0.78125)"/>
     <use xlink:href="#DejaVuSans-30" transform="translate(691.992188 0.78125)"/>
     <use xlink:href="#DejaVuSans-2e" transform="translate(755.615234 0.78125)"/>
     <use xlink:href="#DejaVuSans-39" transform="translate(787.402344 0.78125)"/>
     <use xlink:href="#DejaVuSans-33" transform="translate(851.025391 0.78125)"/>
    </g>
    <!-- Pearson $r$=0.93 -->
    <g transform="translate(63.125875 44.7811) scale(0.12 -0.12)">
     <defs>
      <path id="DejaVuSans-73" d="M 2834 3397 
L 2834 2853 
Q 2591 2978 2328 3040 
Q 2066 3103 1784 3103 
Q 1356 3103 1142 2972 
Q 928 2841 928 2578 
Q 928 2378 1081 2264 
Q 1234 2150 1697 2047 
L 1894 2003 
Q 2506 1872 2764 1633 
Q 3022 1394 3022 966 
Q 3022 478 2636 193 
Q 2250 -91 1575 -91 
Q 1294 -91 989 -36 
Q 684 19 347 128 
L 347 722 
Q 666 556 975 473 
Q 1284 391 1588 391 
Q 1994 391 2212 530 
Q 2431 669 2431 922 
Q 2431 1156 2273 1281 
Q 2116 1406 1581 1522 
L 1381 1569 
Q 847 1681 609 1914 
Q 372 2147 372 2553 
Q 372 3047 722 3315 
Q 1072 3584 1716 3584 
Q 2034 3584 2315 3537 
Q 2597 3491 2834 3397 
z
" transform="scale(0.015625)"/>
      <path id="DejaVuSans-6f" d="M 1959 3097 
Q 1497 3097 1228 2736 
Q 959 2375 959 1747 
Q 959 1119 1226 758 
Q 1494 397 1959 397 
Q 2419 397 2687 759 
Q 2956 1122 2956 1747 
Q 2956 2369 2687 2733 
Q 2419 3097 1959 3097 
z
M 1959 3584 
Q 2709 3584 3137 3096 
Q 3566 2609 3566 1747 
Q 3566 888 3137 398 
Q 2709 -91 1959 -91 
Q 1206 -91 779 398 
Q 353 888 353 1747 
Q 353 2609 779 3096 
Q 1206 3584 1959 3584 
z
" transform="scale(0.015625)"/>
      <path id="DejaVuSans-Oblique-72" d="M 2853 2969 
Q 2766 3016 2653 3041 
Q 2541 3066 2413 3066 
Q 1953 3066 1609 2717 
Q 1266 2369 1153 1784 
L 800 0 
L 225 0 
L 909 3500 
L 1484 3500 
L 1375 2956 
Q 1603 3259 1920 3421 
Q 2238 3584 2597 3584 
Q 2691 3584 2781 3573 
Q 2872 3563 2963 3538 
L 2853 2969 
z
" transform="scale(0.015625)"/>
     </defs>
     <use xlink:href="#DejaVuSans-50" transform="translate(0 0.78125)"/>
     <use xlink:href="#DejaVuSans-65" transform="translate(60.302734 0.78125)"/>
     <use xlink:href="#DejaVuSans-61" transform="translate(121.826172 0.78125)"/>
     <use xlink:href="#DejaVuSans-72" transform="translate(183.105469 0.78125)"/>
     <use xlink:href="#DejaVuSans-73" transform="translate(224.21875 0.78125)"/>
     <use xlink:href="#DejaVuSans-6f" transform="translate(276.318359 0.78125)"/>
     <use xlink:href="#DejaVuSans-6e" transform="translate(337.5 0.78125)"/>
     <use xlink:href="#DejaVuSans-20" transform="translate(400.878906 0.78125)"/>
     <use xlink:href="#DejaVuSans-Oblique-72" transform="translate(432.666016 0.78125)"/>
     <use xlink:href="#DejaVuSans-3d" transform="translate(473.779297 0.78125)"/>
     <use xlink:href="#DejaVuSans-30" transform="translate(557.568359 0.78125)"/>
     <use xlink:href="#DejaVuSans-2e" transform="translate(621.191406 0.78125)"/>
     <use xlink:href="#DejaVuSans-39" transform="translate(652.978516 0.78125)"/>
     <use xlink:href="#DejaVuSans-33" transform="translate(716.601562 0.78125)"/>
    </g>
   </g>
   <g id="PathCollection_1">
    <defs>
     <path id="m4e881a66d1" d="M 0 2.738613 
C 0.726289 2.738613 1.422928 2.450055 1.936492 1.936492 
C 2.450055 1.422928 2.738613 0.726289 2.738613 0 
C 2.738613 -0.726289 2.450055 -1.422928 1.936492 -1.936492 
C 1.422928 -2.450055 0.726289 -2.738613 0 -2.738613 
C -0.726289 -2.738613 -1.422928 -2.450055 -1.936492 -1.936492 
C -2.450055 -1.422928 -2.738613 -0.726289 -2.738613 0 
C -2.738613 0.726289 -2.450055 1.422928 -1.936492 1.936492 
C -1.422928 2.450055 -0.726289 2.738613 0 2.738613 
z
" style="stroke: #ff7f0e; stroke-opacity: 0.9"/>
    </defs>
    <g clip-path="url(#pec953cefbf)">
     <use xlink:href="#m4e881a66d1" x="202.729527" y="233.290771" style="fill: #ff7f0e; fill-opacity: 0.9; stroke: #ff7f0e; stroke-opacity: 0.9"/>
     <use xlink:href="#m4e881a66d1" x="146.20983" y="284.318466" style="fill: #ff7f0e; fill-opacity: 0.9; stroke: #ff7f0e; stroke-opacity: 0.9"/>
     <use xlink:href="#m4e881a66d1" x="301.638996" y="80.207686" style="fill: #ff7f0e; fill-opacity: 0.9; stroke: #ff7f0e; stroke-opacity: 0.9"/>
     <use xlink:href="#m4e881a66d1" x="287.509072" y="92.96461" style="fill: #ff7f0e; fill-opacity: 0.9; stroke: #ff7f0e; stroke-opacity: 0.9"/>
     <use xlink:href="#m4e881a66d1" x="174.469678" y="195.02" style="fill: #ff7f0e; fill-opacity: 0.9; stroke: #ff7f0e; stroke-opacity: 0.9"/>
     <use xlink:href="#m4e881a66d1" x="386.418542" y="105.721534" style="fill: #ff7f0e; fill-opacity: 0.9; stroke: #ff7f0e; stroke-opacity: 0.9"/>
     <use xlink:href="#m4e881a66d1" x="315.76892" y="118.478457" style="fill: #ff7f0e; fill-opacity: 0.9; stroke: #ff7f0e; stroke-opacity: 0.9"/>
     <use xlink:href="#m4e881a66d1" x="230.989375" y="207.776924" style="fill: #ff7f0e; fill-opacity: 0.9; stroke: #ff7f0e; stroke-opacity: 0.9"/>
     <use xlink:href="#m4e881a66d1" x="344.028769" y="143.992305" style="fill: #ff7f0e; fill-opacity: 0.9; stroke: #ff7f0e; stroke-opacity: 0.9"/>
     <use xlink:href="#m4e881a66d1" x="188.599602" y="258.804619" style="fill: #ff7f0e; fill-opacity: 0.9; stroke: #ff7f0e; stroke-opacity: 0.9"/>
     <use xlink:href="#m4e881a66d1" x="273.379148" y="169.506152" style="fill: #ff7f0e; fill-opacity: 0.9; stroke: #ff7f0e; stroke-opacity: 0.9"/>
     <use xlink:href="#m4e881a66d1" x="117.949981" y="297.07539" style="fill: #ff7f0e; fill-opacity: 0.9; stroke: #ff7f0e; stroke-opacity: 0.9"/>
     <use xlink:href="#m4e881a66d1" x="103.820057" y="348.103085" style="fill: #ff7f0e; fill-opacity: 0.9; stroke: #ff7f0e; stroke-opacity: 0.9"/>
     <use xlink:href="#m4e881a66d1" x="400.548466" y="67.450762" style="fill: #ff7f0e; fill-opacity: 0.9; stroke: #ff7f0e; stroke-opacity: 0.9"/>
     <use xlink:href="#m4e881a66d1" x="245.119299" y="131.235381" style="fill: #ff7f0e; fill-opacity: 0.9; stroke: #ff7f0e; stroke-opacity: 0.9"/>
     <use xlink:href="#m4e881a66d1" x="75.560208" y="322.589238" style="fill: #ff7f0e; fill-opacity: 0.9; stroke: #ff7f0e; stroke-opacity: 0.9"/>
     <use xlink:href="#m4e881a66d1" x="216.859451" y="220.533848" style="fill: #ff7f0e; fill-opacity: 0.9; stroke: #ff7f0e; stroke-opacity: 0.9"/>
     <use xlink:href="#m4e881a66d1" x="61.430284" y="335.346162" style="fill: #ff7f0e; fill-opacity: 0.9; stroke: #ff7f0e; stroke-opacity: 0.9"/>
     <use xlink:href="#m4e881a66d1" x="132.079905" y="309.832314" style="fill: #ff7f0e; fill-opacity: 0.9; stroke: #ff7f0e; stroke-opacity: 0.9"/>
     <use xlink:href="#m4e881a66d1" x="89.690133" y="271.561543" style="fill: #ff7f0e; fill-opacity: 0.9; stroke: #ff7f0e; stroke-opacity: 0.9"/>
     <use xlink:href="#m4e881a66d1" x="160.339754" y="246.047695" style="fill: #ff7f0e; fill-opacity: 0.9; stroke: #ff7f0e; stroke-opacity: 0.9"/>
     <use xlink:href="#m4e881a66d1" x="259.249223" y="156.749229" style="fill: #ff7f0e; fill-opacity: 0.9; stroke: #ff7f0e; stroke-opacity: 0.9"/>
     <use xlink:href="#m4e881a66d1" x="358.158693" y="54.693838" style="fill: #ff7f0e; fill-opacity: 0.9; stroke: #ff7f0e; stroke-opacity: 0.9"/>
     <use xlink:href="#m4e881a66d1" x="372.288617" y="41.936915" style="fill: #ff7f0e; fill-opacity: 0.9; stroke: #ff7f0e; stroke-opacity: 0.9"/>
     <use xlink:href="#m4e881a66d1" x="329.898845" y="182.263076" style="fill: #ff7f0e; fill-opacity: 0.9; stroke: #ff7f0e; stroke-opacity: 0.9"/>
    </g>
   </g>
  </g>
 </g>
 <defs>
  <clipPath id="pec953cefbf">
   <rect x="44.474375" y="7.2" width="373.03" height="375.64"/>
  </clipPath>
 </defs>
</svg>
